<svg xmlns="http://www.w3.org/2000/svg" viewBox="0 0 100 100" id="profile"><circle cx="50" cy="50" r="48" fill="#E05B49"></circle><path fill="#EBF0F3" d="M50.893 77.5l.921-3.009 5.372-15.276.31-3.79-2.184-3.194h-11.39l-2.85 4.203L45.029 77.5z"></path><path fill="#F6C358" d="M43.907 48.015h11.42v9.894h-11.42z"></path><path fill="#E56353" d="M47.598 57.909l-1.485 2.253 1.485 2.253h4.038l1.484-2.253-1.484-2.253z"></path><path fill="#E1E6E9" d="M41.737 55.426l2.186-3.195 4.474 5.663-3.609 6.323zM58.104 55.19l-2.793-2.96-4.474 5.664 3.173 5.56z"></path><path fill="#D15241" d="M53.558 77.5l-1.922-15.085h-4.038L45.675 77.5z"></path><path fill="#3A556A" d="M73.317 66.7s-.835-5.473-6.4-6.865l-2.142-.495a10.832 10.832 0 0 1-4.726-2.433l-1.945-1.717-.065.205L50.56 77.5H75.4l-2.082-10.8z"></path><path fill="#2F4859" d="M51.913 77.5c2.619-4.75 6.107-10.242 9.384-12.709 0 0-1.105-1.268-2.963-2.117 0 0 2.793-.697 3.77-1.534 0 0-1.83-4.107-4-5.95 0 0-6.624 12.037-9.285 22.31h3.094z"></path><path fill="#3A556A" d="M41.96 55.395l-.064-.205-1.945 1.717a10.83 10.83 0 0 1-4.727 2.433l-2.14.495c-5.566 1.392-6.401 6.866-6.401 6.866L24.6 77.5H49.44l-7.48-22.105z"></path><path fill="#2F4859" d="M48.086 77.5c-2.618-4.75-6.106-10.242-9.383-12.709 0 0 1.105-1.268 2.962-2.117 0 0-2.792-.697-3.77-1.534 0 0 1.83-4.107 4-5.95 0 0 6.625 12.037 9.286 22.31h-3.095z"></path><g><ellipse cx="50" cy="37.479" fill="#FCD462" rx="14.969" ry="14.979"></ellipse><ellipse cx="50" cy="37.479" fill="#F6C358" rx="12.471" ry="12.48"></ellipse><path fill="#DC8744" d="M49.486 47.191v-1.71c-2.14-.219-4.061-1.07-5.761-2.554l1.71-2.038c1.31 1.14 2.66 1.819 4.05 2.038v-4.546c-1.764-.421-3.056-.976-3.875-1.663-.82-.688-1.23-1.707-1.23-3.058s.471-2.456 1.416-3.316c.946-.859 2.175-1.327 3.69-1.405v-1.172h1.497v1.195c1.717.125 3.34.71 4.87 1.758l-1.522 2.155a7.551 7.551 0 0 0-3.348-1.36v4.406h.07c1.796.422 3.114.992 3.957 1.71.844.719 1.265 1.762 1.265 3.128 0 1.367-.484 2.481-1.452 3.34-.968.86-2.247 1.327-3.84 1.405v1.687h-1.497zm-1.653-15.124c-.398.35-.596.788-.596 1.312 0 .523.156.937.469 1.241.31.305.905.598 1.78.88v-4.055c-.704.063-1.254.27-1.653.622zm4.93 10.274c.436-.359.656-.811.656-1.359 0-.546-.172-.98-.515-1.3-.345-.32-.985-.62-1.92-.902v4.217c.748-.077 1.34-.297 1.779-.656z"></path></g></svg>