<svg xmlns="http://www.w3.org/2000/svg" width="512" height="512" fill-rule="evenodd" clip-rule="evenodd" image-rendering="optimizeQuality" shape-rendering="geometricPrecision" text-rendering="geometricPrecision" id="alien"><path fill="#f5b2b6" d="M257 7c138 0 249 112 249 249 0 138-112 249-249 249C119 505 8 393 8 256 8 118 120 7 257 7z"></path><path fill="#586d96" d="m270 82-12-1c-3 0-8 1-12 1-5 0-14 3-19 4-10 3-17 6-27 10-26 12-51 33-66 57-11 19-14 32-14 54 0 10 2 20 6 29l4 8c0 1-3 4-5 6-1 2-4 7-5 10v2c0 1 3 1 4 2l14 3c2 0 3 0 5 1 6 2 5 0 7 4l-15 12c-2 2-4 3-5 5l-1 1c-6 6-6 8-7 17 0 3-1 12-1 15 0 2 1 2 2 3h32c4 0 16 2 20 4 1 0 2 1 3 1s2 1 3 1c0 2 1 12 2 13s6 4 9 6c2 2 2 2 3 5 1 7 1 14 4 17 1 1 1 1 1 4-1 5-1 8-1 13 0 4 0 6 1 10 1 9 4 16 7 22 1 2 4 7 6 9l2 2c2 2 6 2 6-2 0-2-1-3-1-7v-7l1-9v-2c2-1 7 0 9 0 4 0 4 1 8 2 4 2 8 2 12 2 2 0 3-1 5 0 7 1 16 0 21-3 2-1 2-1 4-1 3 0 6-1 9-1h1c0 1 0 3 1 5 1 7 1 7 1 15 0 3-1 8 0 9s3 1 4 0c1 0 4-4 5-6 1-1 1-2 2-3 3-5 5-8 7-14 1-2 2-7 2-9s1-4 1-6v-15c0-2-1-5-1-7 1-1 2-1 3-3 1-3 2-7 2-10v-5c1-3 1-4 4-6 9-7 8-2 10-14 0-1 1-3 1-4l4-2c2-1 3-1 5-1 3-1 6-1 10-2 2 0 3-1 5-1 4-1 10-1 14-1h19c2-2 2-6 2-10 0-2 0-4-1-5 0-2-1-9-2-11 0-1-1-3-2-4l-3-4-3-3-3-3-15-12c1-3 1-3 6-4 7-2 15-3 22-5 1 0 1 0 2-1v-3c-1-4-5-10-7-12l-1-1c-2-2-3-1 0-6 1-1 1-3 1-4 2-1 5-18 6-20v-15c0-13-3-24-8-35 0-1-1-2-1-3-1-2-5-9-6-12-1-1-1-2-2-3s-3-5-3-5c-1-1-1-2-2-2l-15-16-7-6c-4-4-18-14-23-16-10-5-11-6-21-10-5-2-15-6-20-7-3-1-11-3-14-3zm-26 202s0 15-31 15-46-31-46-31 76-15 76 15zm27 0s0 15 31 15 46-31 46-31-76-15-76 15z"></path><path fill="#495f8c" d="M257 81c-3 0-7 1-11 1-5 0-14 3-19 4-10 3-17 6-27 10-26 12-51 33-66 57-11 19-14 32-14 54 0 10 2 20 6 29l4 8c0 1-3 4-5 6-1 2-4 7-5 10v2c0 1 3 1 4 2l14 3c2 0 3 0 5 1 6 2 5 0 7 4l-15 12c-2 2-4 3-5 5l-1 1c-6 6-6 8-7 17 0 3-1 12-1 15 0 2 1 2 2 3h32c4 0 16 2 20 4 1 0 2 1 3 1s2 1 3 1c0 2 2 12 2 13 1 1 6 4 9 6 2 2 2 2 3 5 1 7 1 14 4 17 1 1 1 1 1 4-1 5-1 8-1 13 0 4 0 6 1 10 1 9 4 16 7 22 1 2 4 7 6 9l2 2c2 2 6 2 6-2 0-2-1-3-1-7v-7l1-9v-2c2-1 7 0 9 0 4 0 4 1 8 2 4 2 8 2 12 2 2 0 3-1 5 0h1V81zm-14 203s0 15-31 15-46-31-46-31 76-15 76 15z"></path><path fill="#fefefe" d="M350 267c-19 40-77 40-80 16-2-12 14-29 80-16zM164 267c19 40 77 40 80 16 2-12-14-29-80-16z"></path><path fill="#009846" d="M214 268c7 0 13 6 13 13s-6 13-13 13-13-6-13-13 6-13 13-13z"></path><path fill="#434242" d="M214 276c3 0 5 2 5 5s-2 5-5 5-5-2-5-5 2-5 5-5z"></path><path fill="#009846" d="M296 268c7 0 13 6 13 13s-6 13-13 13-13-6-13-13 6-13 13-13z"></path><path fill="#434242" d="M296 276c3 0 5 2 5 5s-2 5-5 5-5-2-5-5 2-5 5-5zM239 338c3 0 6 2 6 5s-3 5-6 5-6-2-6-5 3-5 6-5zM274 338c3 0 6 2 6 5s-3 5-6 5-6-2-6-5 3-5 6-5z"></path></svg>