<svg xmlns="http://www.w3.org/2000/svg" viewBox="0 0 256 256" id="avatar"><path fill="#8FD0EB" d="M128 1C57.9 1 1 57.9 1 128c0 14.4 2.4 28.2 6.8 41.1C24.9 219.1 72.3 255 128 255s103.1-35.9 120.2-85.9c4.4-12.9 6.8-26.7 6.8-41.1C255 57.9 198.1 1 128 1z"></path><path fill="#573214" d="M118.7 155c-4.4-.8-8.7-2.2-12.9-3.7-1.4-.5-2.8-.9-4.2-1.4-2.2-.7-4.4-1.5-6.2-2.9-1.8-1.4-3.2-3.7-2.9-6-2.8 1.1-6.2 0-7.8-2.6-.7-1.1-1-2.5-2.1-3.3-.8-.6-1.8-.8-2.6-1.4-.9-.6-1.4-1.5-2-2.4-2.6-4.5-4.8-9.2-6.7-14.1 1.1.6 2.4 1.1 3.7 1.3-3.6-2.6-5.7-7-5.6-11.4 1.2.3 2.3.6 3.5.9.7-1.8-1.3-3.5-2.2-5.3-1.4-3.1.9-6.5 1.6-9.8.6-2.9-.1-6-.8-8.9 1.3.1 2.5.3 3.8.4-1.3-5.2-.5-10.9 2.2-15.5.5-.9 1.1-1.7 1.6-2.6.5-.9.8-1.8 1.2-2.7 2.2-5.4 5-10.5 8.4-15.2-1.1-.1-2.2-.1-3.3-.2 0-2.3 2.8-3.4 5.1-4 2.3-.5 5.1-2.1 4.5-4.4 2.5 0 5.1-.1 7.6-.1-1.5-2.6 1.7-5.6 4.7-6.2 3-.5 6.4-.1 8.8-1.9 1.1-.8 1.9-2.1 3.2-2.6 1.1-.5 2.4-.3 3.6-.2l14.4 1.8c.8.1 1.7.2 2.4.6.7.3 1.2.9 1.7 1.4 2 1.8 4.4 3.1 6.8 4.3l9.9 5.1c.7.4 1.5.8 2 1.4.5.6.8 1.5 1.3 2.2.7 1 1.9 1.6 3 2.2 3.2 1.8 6 4.6 7.6 7.9 1.2 2.7 1.6 5.8 1 8.7 1.6-.1 2.4 1.9 2.8 3.5.4 1.6 1.6 3.5 3.2 3-.7 1-1.5 1.9-2.2 2.9 3-.1 5.3 3.1 5.7 6.1.4 3-.4 6-.5 9.1-.2 5.1 1.2 11-2.3 14.6.4 1.3 1.8 2.2 3.1 1.9-1.6-.2-3.2 1.2-3.2 2.8.8.3 1.5.7 2.3 1-.5 1.5-1.2 3-1.9 4.5.3 2.2-1.2 4.6-3.4 5.1 2.3 2.8 2 7.3-.6 9.8-.4.4-1 .8-1.1 1.4-.3 1.6 2.1 2 3.7 1.7-.4 2.1-3.6 3-5 1.4-.5 2.8-1 5.5-1.5 8.3-1.1.2-2.2.5-3.3.7 1.5 2.7.1 6.6-2.7 7.8-1 .4-2.2.6-3.1 1.1-1.3.8-2 2.2-3.1 3.2-1.9 1.7-4.8 1.8-7.4 1.8-5.6 0-11.2 0-16.8-.1-5.5 0-11.3 0-17-1z"></path><path fill="#C1885D" d="M93.5 191.1c1.8 5.6 2.8 11.5 3.7 17.3 19.5.5 39 .8 58.5 1.1-.6-5.7 1.7-11.3 4-16.7 2.9-6.7 5.7-13.5 8.6-20.2-1.6-.7-3.2-1.5-4.8-2.2-3.3-1.4-6.8-2.9-9.2-5.6-3.8-4.3-4.1-10.5-4.2-16.3l-.3-24.7-40.2-.3c-3.8 0-8 0-11 2.4 3.2 6.6 3 14.3 2.9 21.6-.1 2.3-.1 4.6-.8 6.7-2.3 7.3-10.4 10.4-18 12.7 1.3 2.7 2.6 5.4 4 8.1 2.5 5.4 5.1 10.6 6.8 16.1zm-.2-70.8c.8.8 1.7 1.7 2.7 2.2 1.9.8 4.3.1 5.5-1.6.6-.8.8-1.8 1-2.7.3-1.1.5-2.3.4-3.5 0-3-1.5-5.7-2.9-8.3-.6-1.2-1.3-2.3-1.9-3.5-.1-.2-.2-.4-.4-.4-.2-.1-.4 0-.6 0-.6 0-1.2-.7-1-1.3-1.1.6-2.6-1-3.7-.3-.4.3-.5.7-.6 1.1-.7 2.5-1.2 5.1-1.4 7.7-.2 1.9-.2 3.9.6 5.6.5 1.1 1.3 2.1 1.5 3.3.1.3.1.7.2 1 .1.3.3.5.6.7zm69.2 0c-.8.8-1.7 1.7-2.7 2.2-1.9.8-4.3.1-5.5-1.6-.6-.8-.8-1.8-1-2.7-.3-1.1-.5-2.3-.4-3.5 0-3 1.5-5.7 2.9-8.3.6-1.2 1.3-2.3 1.9-3.5.1-.2.2-.4.4-.4.2-.1.4 0 .6 0 .6 0 1.2-.7 1-1.3 1.1.6 2.6-1 3.7-.3.4.3.5.7.6 1.1.7 2.5 1.2 5.1 1.4 7.7.2 1.9.2 3.9-.6 5.6-.5 1.1-1.3 2.1-1.5 3.3-.1.3-.1.7-.2 1-.2.3-.4.5-.6.7z"></path><path fill="#EFB58D" d="M114.1 56.6c-.9 1.1-1.3 2.6-2.4 3.6-.6.6-1.4.9-2.2 1.4-2.9 1.6-4.9 4.4-6.8 7-1.4 1.9-2.9 3.9-3.2 6.3-.3 1.9.2 4-.3 5.9-.3 1.2-1 2.2-1.5 3.3-1 2.1-1.4 4.4-1.9 6.7-.7 3.9-1.4 7.9-.8 11.8.3 2.3 1.1 4.4 1.5 6.7.5 3.1.1 6.3.3 9.5.6 10.6 7.3 19.8 14.4 27.8 1.3 1.4 2.6 2.9 4.2 4 1.3.9 2.8 1.6 4.4 2.1 7.7 2.7 16.6 1.9 23.5-2.4 4-2.5 7.1-6.1 10.2-9.6 2-2.3 4.1-4.6 5.6-7.2 3.6-5.9 4.5-13.1 4.3-20.1 0-2.5-.2-5-1-7.4-.6-1.8-1.5-3.4-2.2-5.2-.9-2.5-1.2-5.3-.9-7.9.4-3.4 1.9-6.6 1.8-10-.1-2-.7-4-1.3-5.9-1.3-4-2.6-8-4.9-11.5-2.3-3.5-5.7-6.4-9.9-7.2-1.3-.2-2.7-.3-4-.6-1.3-.4-2.6-1.2-3.9-1.7-4.4-1.8-9.3-.7-14-1-3-.2-6.9-.9-9 1.6z"></path><path fill="#72415E" d="M128 255c32.4 0 61.9-12.1 84.3-32.1-2.2-6.2-4.6-12.3-6.9-18.3-2-4.9-4-9.9-7.4-14-3.1-3.6-7.2-6.1-11.2-8.5-6-3.5-12.2-6.7-18.5-9.6-2.9 6.7-5.7 13.5-8.6 20.2-2.3 5.3-4.6 10.9-4 16.7-19.5-.2-39-.6-58.5-1.1-1-5.8-1.9-11.7-3.7-17.3-1.8-5.5-4.3-10.7-6.8-15.8-1.3-2.7-2.6-5.4-4-8.1l-3 .9c-9.4 2.8-18.5 6.8-27 11.8-4.8 2.8-9.4 6-12.9 10.3-4.7 5.6-7.1 12.7-8.8 19.9 23.3 27.5 58.1 45 97 45z"></path></svg>