<svg xmlns="http://www.w3.org/2000/svg" viewBox="0 0 150 150" id="construction-worker"><circle cx="75" cy="75" r="64" fill="#334d5c"></circle><path fill="#e56353" d="M108.004 112.5H41.996v-10.352c0-5.31 3.28-10.07 8.244-11.958l13.9-5.289h21.717l13.903 5.29a12.794 12.794 0 0 1 8.244 11.957V112.5z"></path><path fill="#e56353" d="M85.802 84.902c0 1.252-.487 2.426-1.34 3.456-1.628 1.927-4.552 3.312-8.008 3.61-.232.023-.465.034-.698.045-.243.022-.498.022-.753.022s-.51 0-.753-.022a14.854 14.854 0 0 1-.698-.044c-3.455-.3-6.39-1.684-8.008-3.611-.808-.964-1.284-2.06-1.34-3.223-.01-.078-.01-.155-.01-.233h21.608z"></path><path fill="#f6c358" d="M85.799 70.083v14.82c0 1.25-.487 2.425-1.34 3.455-1.628 1.927-4.552 3.312-8.008 3.61a13.62 13.62 0 0 1-.698.045c-.244.022-.498.022-.753.022s-.51 0-.753-.022a14.854 14.854 0 0 1-.698-.044c-3.456-.3-6.39-1.684-8.008-3.611-.808-.964-1.284-2.06-1.34-3.223V70.083H85.8z"></path><path fill="#fcd462" d="M92.6 64.865a1.11 1.11 0 0 0-.55-.026 21.9 21.9 0 0 0 .062-1.578c0-10.542-7.661-16.925-17.112-16.925S57.888 52.719 57.888 63.26c0 .526.024 1.052.062 1.578a1.11 1.11 0 0 0-.55.026c-1.103.385-1.339 2.587-.525 4.917.772 2.21 2.206 3.72 3.294 3.543C63.125 79.685 68.657 84.51 75 84.51s11.875-4.826 14.831-11.185c1.088.178 2.522-1.333 3.294-3.543.813-2.33.578-4.532-.525-4.917z"></path><path fill="#dc8744" d="M54.463 60.367h41.074c.892 0 1.615.723 1.615 1.615v.347c0 .892-.723 1.615-1.615 1.615H54.463a1.615 1.615 0 0 1-1.615-1.615v-.347c0-.892.723-1.615 1.615-1.615z"></path><path fill="#44c4a1" d="M94.431 60.37H55.568c0-2.97.67-5.788 1.867-8.31.368-.794.8-1.558 1.276-2.286a19.183 19.183 0 0 1 3.012-3.582c.541-.519 1.11-.994 1.701-1.427a19.37 19.37 0 0 1 7.446-3.387 4.136 4.136 0 0 1 2.868-3.676 4.054 4.054 0 0 1 2.523 0 4.137 4.137 0 0 1 2.869 3.676c8.75 1.895 15.301 9.68 15.301 18.991z"></path><path fill="#ebf0f3" d="M71.201 60.37H68.78l-7.057-14.178c.541-.519 1.11-.994 1.701-1.427l7.777 15.604zM63.994 60.37h-2.422l-4.137-8.31c.368-.794.8-1.558 1.276-2.286l5.283 10.595zM78.805 60.37h2.421l7.056-14.178c-.54-.519-1.11-.994-1.7-1.427L78.805 60.37zM86.012 60.37h2.422l4.137-8.31c-.368-.794-.8-1.558-1.276-2.286L86.012 60.37zM76.261 37.702v22.667h-2.523V37.702a4.054 4.054 0 0 1 2.523 0z"></path></svg>