<svg xmlns="http://www.w3.org/2000/svg" viewBox="0 0 256 256" id="avatar"><circle cx="128" cy="128" r="127" fill="#FFD479"></circle><path fill="#E55336" d="m218 217.6-3.6-18.4c-1.6-8-6.7-14.8-14-18.5l-48.5-24.8-22-3v-.5l-1.9.3-1.9-.3v.5l-22 3-48.5 24.8c-7.2 3.7-12.4 10.5-14 18.5L38 217.6c23 23.1 54.8 37.4 90 37.4s67-14.3 90-37.4z"></path><ellipse cx="128" cy="177" fill="#BF4028" rx="33.7" ry="37.5"></ellipse><path fill="#341911" d="M115.9 55.4c-.8-1.3-1.9-2.7-3.4-2.8-.8-.1-1.5.2-2.3.5-11.5 4.7-23.9 11.1-28 22.8-1.7 4.8-1.7 10.1-1.8 15.2-.1 10.4-.1 20.8-.2 31.3 0 4.4-.5 9.7-4.5 11.7-3.9 2-9.4-1.7-8.9-6.1-5.2 1.2-7.5 7.3-7.9 12.6-.4 5.6.3 11.3 3 16.2 4.1 7.4 12.5 11.7 21 12.8s17-.7 25.1-3c6.2-1.8 12.8-4.1 16.7-9.3 4.7-6.2 4.3-14.7 3.8-22.4-1.2-17.2-2.4-34.5-3.6-51.7-.4-5.2-.7-10.4-2.4-15.3-1.4-4.5-4-8.5-6.6-12.5z"></path><path fill="#341911" d="M139.6 55.4c.8-1.3 1.9-2.7 3.4-2.8.8-.1 1.5.2 2.3.5 11.5 4.7 23.9 11.1 28 22.8 1.7 4.8 1.7 10.1 1.8 15.2.1 10.4.1 20.8.2 31.3 0 4.4.5 9.7 4.5 11.7 3.9 2 9.4-1.7 8.9-6.1 5.2 1.2 7.5 7.3 7.9 12.6.4 5.6-.3 11.3-3 16.2-4.1 7.4-12.5 11.7-21 12.8-8.4 1.1-17-.7-25.1-3-6.2-1.8-12.8-4.1-16.7-9.3-4.7-6.2-4.3-14.7-3.8-22.4 1.2-17.2 2.4-34.5 3.6-51.7.4-5.2.7-10.4 2.4-15.3 1.3-4.5 4-8.5 6.6-12.5z"></path><path fill="#E69B81" d="M146.5 135.3H109c-2.8 0-5 2.2-5 5v22.4c0 13.1 10.6 23.8 23.8 23.8 13.1 0 23.8-10.6 23.8-23.8v-22.4c-.1-2.7-2.4-5-5.1-5z"></path><ellipse cx="127.7" cy="107" fill="#F7BA9F" rx="40.7" ry="48.8"></ellipse><path fill="#4F2A14" d="M147.8 64.7c1 6.4.6 7.9 4 13.4s7.8 10.4 11.6 15.6c3.8 5.3 7.1 11.2 7.6 17.7 2.3-10.3 4.5-20.8 4.5-31.4 0-10.6-2.5-21.5-9-29.9-2.9-3.7-6.9-7.1-11.6-7.1-.5 0-1.1 0-1.6-.2-.4-.2-.8-.6-1.1-1-4.2-5.3-11.4-6.9-18.1-7.8-4-.6-8.1-1-12.1-.6-7.5.7-14.4 4.3-20.1 9.2-5.6 4.9-10 11.1-13.7 17.7-1.6 2.8-3 5.6-4.1 8.6-5 13.2-3.3 27.7-3.4 41.8C83 101 92 93.3 101.9 92.5c3.2-.3 6.5.1 9.7-.4 1.8-.3 3.6-.9 5.3-1.5 6.4-2.4 12.7-5.9 16.7-11.4-4 6.5-9.5 12.1-16.1 16 7.2-2.4 14.3-5.7 19.9-10.8 5.7-5.1 9.9-12.1 10.4-19.7"></path><path fill="#EDF2F1" d="M166 93.2H87.6c-1.3 0-2.4 1.1-2.4 2.4v19.7c0 1.3 1.1 2.4 2.4 2.4H117c1 0 1.8-.6 2.2-1.5l4-9.6c.6-1.5 2-2.4 3.6-2.4s3 1 3.6 2.4l4 9.6c.4.9 1.2 1.5 2.2 1.5H166c1.3 0 2.4-1.1 2.4-2.4V95.6c0-1.3-1.1-2.4-2.4-2.4z"></path><path fill="#3DA8D6" d="M108.6 97.2H95.9c-3 0-5.4 2.4-5.4 5.4v5.1c0 3 2.4 5.4 5.4 5.4h12.7c3 0 5.4-2.4 5.4-5.4v-5.1c0-3-2.5-5.4-5.4-5.4zm49.1 0H145c-3 0-5.4 2.4-5.4 5.4v5.1c0 3 2.4 5.4 5.4 5.4h12.7c3 0 5.4-2.4 5.4-5.4v-5.1c0-3-2.4-5.4-5.4-5.4z"></path></svg>