<svg xmlns="http://www.w3.org/2000/svg" viewBox="0 0 256 256" id="avatar"><circle cx="128" cy="128" r="127" fill="#FFD678"></circle><path fill="#BB9260" d="M107.1 183c.3 1 .7 2 1 2.9 1 2.9 1.9 5.9 2.9 8.9.3 1 .7 2.1 1 3.1.8 2.7 1.7 5.4 2.5 8.1.2.5.3 1 .5 1.6 1 3.2 1.9 6.4 2.8 9.5.2.8.5 1.7.7 2.5.9 3.3 1.9 6.5 2.8 9.8 2.3 8.4 4.5 16.8 6 25.3v.3h.7c5.3 0 10.6-.3 15.8-1 .1-1 .2-2 .4-3.1.1-.4.1-.9.2-1.3.3-2.5.6-4.9.9-7.3 0-.2.1-.5.1-.7.3-2.6.7-5.1 1-7.7 0-.1 0-.3.1-.4.4-2.6.8-5.3 1.1-7.9v-.1c2.8-18.8 6.1-37.6 9.8-56.3-2.9 1.9-6.3 3.2-9.7 4-5.7 1.3-11.6 1.4-17.4 1.3-9-.1-18.4-.5-27.1-2.6.1.3.2.7.3 1l1.2 3.6c.9 2.1 1.6 4.3 2.4 6.5z"></path><path fill="#61242A" d="M172.3 180.9c5.2 2.8 10.5 5.7 15.7 8.5 1 .6 2.1 1.1 2.7 2.1 1.2 1.9.2 4.4-.8 6.5-7.9 16.3-14.7 33.2-20.9 50.2 27.1-9.2 50-27.3 65.4-50.8-1.8-13.4-5-27.2-14.5-36.6-8.9-8.8-21.5-11.8-33.4-16.3 4.3 10.1 7.6 20.7 9.7 31.5-8.1 1.3-16 2.9-23.9 4.9z"></path><path fill="#4C1619" d="M84.1 179.8c-4.2 4.3-8.3 8.6-12.5 12.9-.6.6-1.2 1.3-1.3 2.1-.1.7.2 1.4.5 2.1 2.3 5.1 4.9 10.1 7.7 15 5 8.5 10.7 16.5 15.9 24.9 3.2 5.1 6.1 10.4 8.8 15.8 7.8 1.5 15.8 2.4 24.1 2.4v-.3c-1.4-8.6-3.6-17-6-25.3-.9-3.3-1.9-6.6-2.8-9.8-.2-.8-.5-1.7-.7-2.5-.9-3.2-1.9-6.4-2.8-9.5-.2-.5-.3-1-.5-1.6-.8-2.7-1.7-5.4-2.5-8.1-.3-1-.7-2.1-1-3.1-.9-3-1.9-5.9-2.9-8.9-.3-1-.7-2-1-2.9-.7-2.2-1.5-4.4-2.2-6.6l-1.2-3.6c-3.6-10.5-7.4-20.8-11.4-31.2-1.6 1.4-3.2 2.6-4.9 3.9-6.5 4.7-13.6 8.5-20.9 12.1-.4 8.4-.8 16.7-1.2 25.1 5.5-3.4 12.4-4.5 18.8-2.9z"></path><path fill="#61242A" d="M103.2 252.6c-2.7-5.4-5.6-10.7-8.8-15.8-5.2-8.4-10.9-16.4-15.9-24.9-2.8-4.9-5.4-9.9-7.7-15-.3-.7-.6-1.4-.5-2.1.1-.8.7-1.5 1.3-2.1 4.2-4.3 8.3-8.6 12.5-12.9-6.3-1.6-13.3-.5-18.9 2.9.4-8.4.8-16.7 1.2-25.1-3.2 1.6-6.5 3.1-9.7 4.7-7.6 3.7-15.4 7.5-21.3 13.7-5.1 5.4-8.4 12.2-11.5 19-.6 1.3-1.1 2.5-1.5 3.6 18.4 27.4 47.2 47.3 80.8 54z"></path><path fill="#4C1619" d="M147.6 225.6c-.4 2.6-.8 5.3-1.1 7.9 0 .1 0 .3-.1.4-.4 2.6-.7 5.1-1 7.7 0 .2-.1.5-.1.7-.3 2.4-.6 4.9-.9 7.3-.1.4-.1.9-.2 1.3-.1 1-.2 2-.4 3.1 8.7-1.1 17.2-3 25.2-5.8 6.2-17.1 13-33.9 20.9-50.2 1-2.1 2-4.6.8-6.5-.6-1-1.7-1.6-2.7-2.1-5.2-2.8-10.5-5.7-15.7-8.5 7.9-2 15.8-3.6 23.9-4.8-2.1-10.8-5.3-21.4-9.7-31.5-3.8-1.4-7.5-3-11.1-5-4.4-2.5-8.4-5.6-11.5-9.5-1.2 12.6-4.3 28.5-6.3 38-.1.4-.2.8-.2 1.2-3.8 18.7-7 37.4-9.8 56.3 0-.1 0-.1 0 0z"></path><path fill="#995F37" d="M130.4 174.5c-9-.1-18.4-.5-27.1-2.6-3.5-10.1-7.2-20.2-11.1-30.2 7.3-6.2 13.5-13.8 16.9-22.7 1.4-3.8 2.4-7.9 5.4-10.7 3.9-3.7 9.9-3.7 15.3-3.2 10.1 1 21.2 3.7 27 12 2.3 3.2 3.5 7 5.6 10.4.5.9 1.1 1.7 1.7 2.5-1.2 12.6-4.3 28.5-6.3 38-.1.4-.2.8-.2 1.1-2.9 1.9-6.3 3.2-9.7 4-5.8 1.4-11.7 1.4-17.5 1.4z"></path><path fill="#180F0F" d="M190.6 161.2c-2.2 4.9-6.9 8.6-8.5 13.8-3.8 12.2 11 23.6 9.3 36.3-3.3-7.2-9.3-12.8-13.2-19.7-3.9-6.9-5.3-16.5.3-22.1-9 6.4-12.8 19.1-8.9 29.3-4.1-4.9-5.6-11.7-4.1-17.9.8-3 2.2-5.9 2.4-9.1.3-7.4-6.7-12.9-9.8-19.7-4.2-9.4-.3-20.2 2.7-30.1 3.5-11.8 5.6-24.1 6.1-36.5.4-8.4-.1-17.3-4.4-24.6-3.7-6.4-10-10.8-15.5-15.7-5.6-4.9-10.9-11-11.5-18.3 12.8-.6 25.7 3.1 36.2 10.4 3.4 2.4 6.6 5.2 8.8 8.7 2.4 3.7 3.5 8.1 4.5 12.4 4.3 18 7.2 38-1.6 54.4-1.6 3.1-3.7 6.1-3.8 9.6-.1 3.8 2.1 7.2 4.2 10.3 5.7 8.6 10.9 19.2 6.8 28.5z"></path><path fill="#B67B53" d="M147 137.2c-6.7-2.7-13.2-5.7-19.7-8.9-2.9-1.4-5.9-3-8.1-5.3-2-2.1-3.3-4.7-4.4-7.4-3.2-8.3-3.9-17.3-3.4-26.2.2-4.8.8-9.6 2.6-14 2-4.8 5.4-8.8 8.7-12.8 4-4.7 8-9.4 12.8-13.2 4-3.2 8.4-5.8 13.1-7.6 2.8-1.1 5.9-2 8.8-1.1.8.2 1.5.6 2.3.9 2.2 1.1 4.5 2.1 6.7 3.2 2.5 1.2 5.1 2.4 6.9 4.5 1.7 2 2.6 4.6 3.4 7.1 2.4 7.5 4.4 15.4 3.3 23.2-.8 5.3-2.9 10.3-3.2 15.6-.1 3.3.5 6.6 0 9.8-.5 3.6-2.2 6.8-3.9 10-2.4 4.5-4.7 8.9-7.1 13.4-2.5 4.7-5.8 10-11.1 10.7-2.5.2-5.2-.8-7.7-1.9z"></path><path fill="#180F0F" d="M76.1 221.3c-.2-1.8-1.7-3.1-3-4.4-7.4-7.6-9.3-19.9-4.6-29.4 2.6-5.2 7-10.4 5.4-15.9.6 5.4-4.6 9.4-9.1 12.4s-9.5 7.4-8.5 12.7c-1.4-5.7.3-12.1 4.4-16.2 1.2-1.3 2.7-2.4 3.6-4 2.4-4.6-1.5-9.9-1.8-15-.2-3.5 1.3-7.1 4.1-9.3-3.3 2.4-6.5 4.9-9.8 7.3-2.3 1.7-4.6 3.5-5.9 6-2.1 4-1.1 8.8-1.5 13.3-.4 4.5-3.5 9.7-8 9 7.5-7.6-1.5-22.7 5.9-30.4 4.2-4.4 11.9-4.2 15.3-9.2 3.5-5.1.2-11.8-.7-17.8-1-6.5 1-13.5 5.3-18.5 3.6-4.2 8.6-7 11.9-11.3 5.3-7 5.1-16.6 6.1-25.3 1-9.2 3.6-18.1 7.5-26.5 5.2-11 13.7-21.5 25.6-23.9 4.9-1 9.9-.5 14.8.4 10.3 1.9 20.3 5.5 29.3 10.8 1 .6 2.1 1.3 2.4 2.5.2.9-.1 1.8-.4 2.7-1.9 5-3.8 10-5.6 15-3 8.1-6.5 16.6-13.6 21.5-6 4.2-14.6 5.6-18 12-5.2 9.9 6.3 21.7 3.7 32.6-2.3 9.6-15 15.7-13.4 25.5.6 3.8 3.4 6.8 5.8 9.8 3 3.8 5.7 7.9 6.9 12.6 1.2 4.7.8 9.9-2 13.9-2.9 4.2-8 6.4-12.9 7.6-4.8 1.2-10.7 2.5-12.3 7.2-1.8 5.3 3.4 10.7 2.7 16.3-.8 5.4-6.6 8.2-11.5 10.4-5 2.2-10.6 5.6-10.5 11.1-.6-4.3 1.4-8.8 4.8-11.4 2.5-1.8 6-3.2 6.4-6.3.6-4.4-5.6-6.3-7.8-10.2-2.3-4.1.5-9.1 3.5-12.6s6.7-7.3 6.5-11.9c-2.8 7.1-12.7 8.1-17.7 13.9-3.6 4.3-3.9 10.7-2.1 16 .6 1.8 1.5 3.7 1.4 5.6-.3 5.2-6.7 7.3-11.9 7.6 2.1 0 4.2 0 6.1-.9 1.9-1.4 3.5-3.3 3.2-5.3z"></path><path fill="none" d="M114.4 206c-.8-2.7-1.7-5.4-2.5-8.1.9 2.7 1.7 5.4 2.5 8.1zm6.9 23.4c-.9-3.3-1.9-6.6-2.8-9.8.9 3.2 1.9 6.5 2.8 9.8zm-10.4-34.6c-.9-3-1.9-5.9-2.9-8.9 1 3 2 5.9 2.9 8.9zm6.9 22.3c-.9-3.2-1.9-6.4-2.8-9.5.9 3.1 1.8 6.3 2.8 9.5zM107.1 183c-.7-2.2-1.5-4.4-2.2-6.6.7 2.2 1.4 4.4 2.2 6.6zm40.5 42.6v-.1.1zm-3.4 25.4c.1-.4.1-.9.2-1.3-.1.4-.2.8-.2 1.3zm2.2-17.1c0-.1 0-.3.1-.4-.1.2-.1.3-.1.4zm-1.1 8.4c0-.2.1-.5.1-.7-.1.2-.1.5-.1.7z"></path><path fill="#4C1619" d="m103.6 172.8 1.2 3.6-1.2-3.6zm14.9 46.8c-.2-.8-.5-1.7-.7-2.5.2.8.4 1.6.7 2.5zm-3.6-12.1c-.2-.5-.3-1-.5-1.6.2.6.4 1.1.5 1.6zm-3-9.6c-.3-1-.7-2.1-1-3.1.4 1 .7 2.1 1 3.1zm-3.9-12c-.3-1-.7-2-1-2.9.4 1 .7 1.9 1 2.9zm35.8 68.1c.1-1 .2-2 .4-3.1-.2 1.1-.3 2.1-.4 3.1zm.5-4.3c.3-2.5.6-4.9.9-7.3-.3 2.4-.6 4.8-.9 7.3zm2.2-16.2c.4-2.6.8-5.3 1.1-7.9-.4 2.6-.8 5.3-1.1 7.9zm10.9-64.3c-3.8 18.7-7 37.4-9.8 56.3 2.8-18.9 6.1-37.7 9.8-56.3zm-12 72.4c.3-2.6.7-5.1 1-7.7-.4 2.6-.7 5.1-1 7.7z"></path></svg>