<svg xmlns="http://www.w3.org/2000/svg" enable-background="new 0 0 512 512" viewBox="0 0 512 512" id="ass"><circle cx="256" cy="256" r="252.5" fill="#324A5E"></circle><path fill="#E6E9EE" d="M394.7 101.5L394.7 101.5c-8.6-5.2-19.4-5.9-28.5-1.5-12.6 6-21.5 12.4-31.1 26.8-15.6 24-37.8 64.6-42.4 96.7l0 0c0 0 0 0 0 0 33 1.6 78.5-32.7 95.6-62.7C401.8 137.8 400.9 122.9 394.7 101.5zM117.3 101.5L117.3 101.5c8.6-5.2 19.4-5.9 28.5-1.5 12.6 6 21.5 12.4 31.1 26.8 15.6 24 37.8 64.6 42.4 96.7l0 0c0 0 0 0 0 0-33 1.6-78.5-32.7-95.6-62.7C110.2 137.8 111.1 122.9 117.3 101.5z"></path><path fill="#FF7058" d="M339.5,282c0,51.4-37.4,151.4-83.5,151.4c-46.1,0-83.5-99.9-83.5-151.4s37.4-103,83.5-103   C302.1,179,339.5,230.6,339.5,282z"></path><path fill="#FFD05B" d="M327.8,374.9c2.6-3.1,4.3-7,4.3-11.3c0-9.6-7.8-17.4-17.4-17.4c-4.3,0-8.2,1.6-11.3,4.3   c-13.1-7.5-29.5-12.1-47.4-12.1c-17.9,0-34.3,4.5-47.4,12.1c-3-2.6-7-4.3-11.3-4.3c-9.6,0-17.4,7.8-17.4,17.4   c0,4.3,1.6,8.3,4.3,11.3c-3.2,6.2-5,12.8-5,19.8c0,31.1,34.4,56.4,76.8,56.4c42.4,0,76.8-25.2,76.8-56.4   C332.8,387.7,330.9,381.1,327.8,374.9z"></path><path fill="#F9B54C" d="M304.8,404.7c-3.2,17.7-23.9,31.2-48.8,31.2c-25,0-45.6-13.6-48.8-31.3c12.1,9.7,29.5,15.8,48.8,15.8    C275.3,420.4,292.7,414.3,304.8,404.7z"></path><circle cx="314.7" cy="363.6" r="7.8" fill="#F9B54C"></circle><circle cx="197.3" cy="363.6" r="7.8" fill="#F9B54C"></circle><g><circle cx="293" cy="243.4" r="10.7" fill="#2B3B4E"></circle><circle cx="219" cy="243.4" r="10.7" fill="#2B3B4E"></circle></g></svg>