<svg xmlns="http://www.w3.org/2000/svg" id="church-father" x="0" y="0" version="1.1" viewBox="0 0 150 150" xml:space="preserve"><circle cx="75" cy="75" r="64" fill="#45b39c"></circle><path fill="#3a556a" d="M110.491 112.5H39.51l3.21-19.03a8.09 8.09 0 0 1 5.25-6.26l10.61-3.771 1.91-.68L75 77.599l14.51 5.16 1.91.68 10.611 3.77c2.76.98 4.77 3.38 5.26 6.26l3.2 19.031z"></path><path fill="#64798a" d="M87.283 81.548c0 6.24-24.561 6.24-24.561 0l3.017-9.874h18.526l3.018 9.874z"></path><path fill="#f6c358" d="M90.305 56.023c-.056-.01-.113.001-.17-.003.016-.37.027-.74.027-1.104 0-10.4-6.787-14.289-15.16-14.289-8.372 0-15.159 3.89-15.159 14.289 0 .365.01.733.027 1.104-.057.004-.114-.008-.17.003-1.403.266-2.207 2.39-1.796 4.745.412 2.355 1.882 4.049 3.284 3.783.11-.02.21-.072.313-.115 2.509 7.429 7.61 13.852 13.501 13.852 5.89 0 10.993-6.423 13.502-13.852.103.043.202.094.313.115 1.402.266 2.872-1.428 3.283-3.783.411-2.355-.392-4.48-1.795-4.745z"></path><path fill="#f6c358" d="M90.305 56.023c-1.402-.265-2.872 1.429-3.283 3.784-.412 2.355.392 4.479 1.795 4.744 1.402.266 2.872-1.428 3.283-3.783.411-2.355-.392-4.48-1.795-4.745zM59.7 56.023c-1.403.266-2.207 2.39-1.796 4.745.412 2.355 1.882 4.049 3.284 3.783 1.403-.265 2.206-2.39 1.795-4.744-.41-2.355-1.881-4.05-3.283-3.784z"></path><path fill="#3a556a" d="M61.822 58.492c-.108-.263-.228-.552-.138-.82.102-.305.426-.46.678-.658.701-.551.417-1.608.342-2.497-.076-.889-.367-1.75-.429-2.64-.1-1.44.4-2.848.894-4.206.119-.326.246-.665.504-.897.202-.181.465-.278.725-.356a6.906 6.906 0 0 1 4.156.08c.636.216 1.239.525 1.883.715.967.284 1.99.29 2.998.294 2.561.01 5.134.018 7.67-.342.898-.127 1.815-.31 2.58-.798.265-.169.516-.375.82-.452.414-.105.851.05 1.22.266a3.953 3.953 0 0 1 1.924 3.221c.067 1.979-1.36 3.98-.627 5.82.163.41.425.773.633 1.163.993 1.857.69 4.11.36 6.19.281.208.596-.22.686-.558a53.993 53.993 0 0 0 1.31-6.544c.524-3.83.557-8.01-1.588-11.228-1.529-2.294-3.966-3.791-6.326-5.217-.652-.394-1.31-.79-2.025-1.053-1.254-.462-2.622-.491-3.959-.47-2.637.041-5.303.265-7.8 1.11-2.498.847-4.835 2.367-6.274 4.577-.877 1.346-1.392 2.894-1.794 4.45-.274 1.061-.5 2.143-.542 3.239-.09 2.36.188 4.752.31 7.11.049.94.487 1.808.654 2.735.143.897.488 2.665 1.365 2.355 1.347-.475.312-3.313-.21-4.589z"></path><path fill="#fcd462" d="M91.42 83.439c-2.31 10.97-15.28 17.21-15.89 17.59l-.53.33-.53-.33c-.6-.38-13.58-6.62-15.89-17.59l1.91-.68c1.76 9.09 12.04 14.55 14.51 16.22 2.46-1.67 12.75-7.13 14.51-16.22l1.91.68z"></path><path fill="#f6c358" d="M78.488 104.452H75.75v-4.738a.75.75 0 0 0-1.5 0v4.738h-2.739a.75.75 0 0 0 0 1.5h2.738v3.737a.75.75 0 0 0 1.5 0v-3.737h2.738a.75.75 0 0 0 0-1.5z"></path></svg>