<svg xmlns="http://www.w3.org/2000/svg" width="512" height="512" fill-rule="evenodd" clip-rule="evenodd" image-rendering="optimizeQuality" shape-rendering="geometricPrecision" text-rendering="geometricPrecision" id="cat"><path fill="#4e565a" d="M259 8c138 0 249 112 249 249 0 138-112 249-249 249-138 0-249-112-249-249C10 119 122 8 259 8z"></path><path fill="#ebecec" d="M251 193c12 0 24 1 35 4 5-24 22-57 63-94 0 0 48 92 28 170 3 9 5 19 5 30 0 60-59 109-131 109h-6c-72 0-131-49-131-109 0-10 2-20 5-30-20-77 28-170 28-170 41 37 57 70 63 94 11-3 23-4 35-4h-5z"></path><path fill="#898989" d="M371 249s-14-21-32-31c-17-10-23-12-23-12 34-18 33-36 37-70 0 0 36 58 17 114zm-224 0s14-21 32-31c17-10 23-12 23-12-34-18-33-36-37-70 0 0-36 58-17 114z"></path><path fill="#393185" d="M211 257c10 0 18 8 18 18s-8 18-18 18-18-8-18-18 8-18 18-18zm96 0c10 0 18 8 18 18s-8 18-18 18-18-8-18-18 8-18 18-18z"></path><path fill="#9d9e9e" d="m305 362-1-1c1 0 1-1 1-1s-5-2-12-4c-8-3-20-6-31-6h-6c-12 0-23 3-31 6-7 2-12 4-12 4l1 1c-1 0-1 1-1 1 15 11 32 13 46 13 14 1 30-2 46-13z"></path><path fill="#727271" d="M317 206s5-14 15-39 22-32 22-32-1 45-1 69 18 45 18 45-27-23-54-43zM200 206s-5-14-15-39-22-32-22-32 1 45 1 69-18 45-18 45 27-23 54-43z"></path><path fill="#c5c6c6" d="M388 272s10 35-9 48c-19 14-43 21-61 51s-36 40-56 40h-5c-20 0-38-10-56-40s-43-38-61-51c-19-14-9-48-9-48-12 31-9 78 42 113 28 19 57 25 77 26h18c20-1 49-7 77-26 51-35 54-83 42-113z"></path><path fill="#5b5b5b" d="M259 311c8 0 15 4 15 9s-7 9-15 9-15-4-15-9 7-9 15-9z"></path><path fill="#e31e24" d="m283 372-1-1h1s-12-8-23-8h-2c-12 0-23 8-23 8h1l-1 1c7 3 16 4 24 3 8 1 17 0 24-3z"></path></svg>