<svg xmlns="http://www.w3.org/2000/svg" viewBox="0 0 150 150" id="man"><circle cx="75" cy="75" r="64" fill="#45b39c"></circle><path fill="#3a556a" d="m47.33 91.171 18.815-9.716h17.069l19.344 9.743a11.599 11.599 0 0 1 6.158 10.243V112.5H41.284v-11.146a11.6 11.6 0 0 1 6.045-10.183z"></path><path fill="#f6c358" d="M66.145 73.204v8.251a8.535 8.535 0 0 0 17.07 0v-8.25h-17.07z"></path><path fill="#3a556a" d="M97.319 71.119c-2.157-.768-4.03-2.221-5.236-4.063-.633-.967-1.093-2.04-1.606-3.073-.565 1.931-1.672 3.255-2.66 3.066-1.128-.215-1.673-2.321-1.218-4.703.455-2.382 1.738-4.138 2.866-3.923.995.19 1.535 1.853 1.336 3.878 1.157.327 2.412.357 3.572.034-1.747-1.998-2.835-4.495-3.079-7.067-.187-1.98.111-3.987-.195-5.954-.658-4.212-4.032-7.674-7.905-9.904-1.699-.978-3.66-1.794-5.63-1.505-.79.115-1.552.407-2.352.43-.95.026-1.857-.328-2.776-.552-3.868-.94-8.133.54-10.896 3.243-2.763 2.703-4.14 6.462-4.405 10.196-.157 2.191.036 4.429-.558 6.554a9.61 9.61 0 0 1-2.71 4.412 11.24 11.24 0 0 0 4.65-.83c0 .003 0 .007.002.01.024-1.582.538-2.785 1.375-2.945 1.128-.215 2.411 1.541 2.867 3.923.455 2.382-.09 4.488-1.219 4.703-1.047.2-2.219-1.306-2.747-3.427-.123 2.16-1.313 4.28-3.246 5.48-1.178.732-2.61 1.169-3.506 2.19 2.35.435 4.934-.75 6.01-2.753.332 2.609-.587 5.335-2.457 7.294 1.705-.742 3.014-2.238 3.458-3.949a13.192 13.192 0 0 0 2.543 4.88c.378.46 3.318 1.707 4.093 1.678 2.063-.077 4.127.077 6.19 0 4.164-.155 8.329.155 12.493 0 .43-.016.87.138 1.274 0 .391-.133 3.626-3.909 4.495-5.403.5.707 1.13 1.333 1.855 1.842.205.145.44.287.696.274.715-.036.74-1.024.498-1.655a18.786 18.786 0 0 0-2.101-3.972c1.647 1.415 4.042 2.027 6.229 1.59z"></path><path fill="#fcd462" d="M89.465 58.423c-.376-.072-.767.092-1.141.408-.379-.887-.873-1.738-1.375-2.573l-2.936-4.882c-.662-1.1-1.342-2.224-2.35-3.064-1.01-.84-2.425-1.362-3.729-1.032-1.048.265-1.968 1.05-3.052.979-1.009-.067-1.782-.856-2.732-1.18-1.63-.557-3.47.385-4.503 1.688-1.034 1.302-1.5 2.91-2.184 4.401-1.006 2.192-2.5 4.143-4.056 6.042-.478-.57-1.01-.883-1.513-.787-1.128.216-1.673 2.322-1.218 4.703.448 2.344 1.696 4.072 2.81 3.922 2.049 7.69 7.182 15.146 13.195 15.146s11.146-7.455 13.194-15.146c1.114.147 2.361-1.58 2.809-3.922.455-2.381-.09-4.487-1.219-4.703z"></path><path fill="#3a556a" d="M71.01 78.093c.3.13.587.293.906.38.984.27 2.013-.214 3.04-.29 1.286-.094 2.556.461 3.84.335 1.196-.117 2.352-.778 3.542-.704.082.005.145.09.126.168-.26 1.075-1.02 1.999-1.897 2.781-.918.819-2.012 1.46-3.097 2.096-.728.426-1.596.87-2.419.617-.361-.111-.696-.355-1.076-.317-.183.018-.35.101-.527.146-.574.146-1.178-.124-1.645-.456-.467-.332-.884-.74-1.436-.945-.362-.134-.767-.174-1.106-.351-.358-.188-.6-.508-.815-.825a12.325 12.325 0 0 1-1.072-1.935c-.72-1.637 2.757-1.083 3.637-.7zM74.632 70.797s-.397-1.409-2.448-1.184a3.844 3.844 0 0 0-1.633.577c-1.26.8-3.779 2.819-2.147 5.414 0 0 .512-2.374 3.426-2.433 0 0 3.28-.416 2.802-2.374z"></path><path fill="#3a556a" d="M74.727 70.797s.397-1.409 2.449-1.184c.606.066 1.164.28 1.633.577 1.26.8 3.778 2.819 2.146 5.414 0 0-.511-2.374-3.425-2.433 0 0-3.281-.416-2.803-2.374z"></path></svg>