<svg xmlns="http://www.w3.org/2000/svg" viewBox="0 0 256 256" id="avatar"><circle cx="128" cy="128" r="127" fill="#F3756F"></circle><path fill="#10100F" d="M93.8 46.5c.9-.7.6-2.1.1-3.1 1.4 0 2.7 0 4.1-.1-.3-1-.5-2-.8-3 1.1-.3 2.2-.2 3.3.2-1.6-1.1-3.4-1.8-5.3-2.1.8 2.9-6.8 1.9-5.8 4.6-.3-2.5 2-4.8 4.4-5.2 2.4-.4 4.9.5 7.2 1.3-1.7-1.2-2.7-3.5-2.5-5.7 1.1-.6 2.7-.1 3.3 1.2.3-1.5 2-2.5 3.3-1.9.6-2.3 3.3-3.3 5.5-2.8s4 2 5.7 3.5c.1-1.2.2-2.4.3-3.5 4.1-1.2 9.5-1.9 11.8 1.8 2-2.4 6.6-.6 6.5 2.6 4.7-3.3 10.6-4.7 16.2-3.7-5.6-1.6-11.9-.3-16.5 3.4 3.6-.9 7.3-1.5 11.1-1.9-2.6 1.4-5 3.1-7.3 5.1 3.2-.9 6.3-1.8 9.5-2.8.5.5.5 1.4 0 2 4.8-5.3 12.4-7.5 19.2-5.6-5.6-.8-11.6 1.6-15.1 6.3 2.8-1.6 5.9-3.3 9-2.6 3.1.7 5.5 5 3.4 7.4 2-.5 4.2 0 5.7 1.3 1.8-2.1 5.3-1.5 7.2.5 1.9 2 2.6 4.9 3.2 7.7-1.5-2.3-3.3-4.7-5.8-5.7-2.6-.9-6.1.7-6.1 3.5 0 1.8 1.5 3.4 3.2 3.9 1.7.4 3.5-.1 5-1-1.6.3-3.4.5-4.8-.4s-1.7-3.5-.2-4.1c1.2 1.2 2.8 1.8 4.2 2.7 1.4.9 2.7 2.3 2.7 4 0 1.7-2.2 3.2-3.4 2 1.7 1.3 3.6 2.7 5.7 2.5s3.8-3.2 2.3-4.7c1 2.7 1.5 5.6 1.4 8.5-1.6.7-3.7-.2-4.3-1.9 4.5 0 8.2 3.9 9.7 8.3s1.1 9.2.8 13.8c1.1-7.3-3.2-15.1-9.8-17.8 1.5 2.4 2.7 4.9 3.6 7.6-1.5-1-2.9-1.9-4.4-2.9.3 3.4 2.3 6.5 5.2 8.1-1.4.7-3.3-.2-3.7-1.8 2.2 4.6 8.3 4.8 12.3 7.7 4.6 3.4 5.6 10 6.3 15.9-.2-7.5-5.8-14.6-12.9-16.2 3.9 1 6.8 5.4 6.3 9.6-1.2-4.5-5.2-8.1-9.6-8.8 3.5 2 6.3 5.4 7.6 9.3-1.4-.6-2.8-1.3-4.2-1.9.3 2.2 1.4 4.2 3.1 5.5-1-.1-2-.2-2.9-.4.6 3.8 4.3 6.7 8 6.3-1.3 2.8-6.1 2-6.6-1-1 3 .3 6.7 2.9 8.3-.3 1.3-1.8 2.2-3.1 1.8 1.8.6 3.2 2.6 3 4.6-.2 2-1.8 3.7-3.7 4 1.8 1.9 2.9 4.5 2.9 7.2 2.1-1.1 4.1-2.3 6.2-3.4-1.2 3-4.3 4.9-7.4 4.6-3.1-.3-5.8-2.9-6.3-6.1-.6 3.9 1.6 8.2 5.2 9.8 2.2 5.2 1.8 11.5-1 16.3.3-2.8.6-5.7-.2-8.4-.9-2.7-3.2-5.1-6-4.9-.4 1.6-.7 3.1-1.1 4.7.9.7 2.3.7 3.2 0 .6 1 .7 2.2.4 3.3-.9-.6-1-2.1-.3-2.8.8 1.2 1.1 2.7.8 4-1.4-.5-3.1-.1-4.1 1.1 1.4 1.1 3.7.5 4.4-1.2 2.7 3.5 0 9.7-4.3 9.9 1.7-.5 2.8-2.6 2.3-4.3-.5-1.8-2.4-2.9-4.1-2.5.8.8 1.7 2 1.2 3.1s-2.6-.1-1.6-.8c.6-.5 1.4.9.7 1.3.8-2.2-.3-4.9-2.4-5.7-2.1-.7-4.7 1.1-4.6 3.4.1 2.3 3.2 3.8 4.8 2.3v2.7c.7-2.6-1.9-5.4-4.4-4.7-1 1.6-1.8 4-.3 5 .8.5 1.7.3 2.6.4 2.7.4 3.7 4.7 1.5 6.4-1.2-.3-2.1-1.8-1.6-3s2.6-1.2 2.9.1c.2 1-.7 1.8-1.4 2.5-1.8 1.4-3.5 2.8-5.3 4.2.2-.8.5-1.5.7-2.3-1.3-.1-2.6 0-3.9.4 1.4-1.1 2.2-3 2.1-4.8-1.7 0-3.4 1.3-3.9 3s.2 3.8 1.7 4.7c-.6 1.5-2 2.6-3.5 2.8-.6-1.2 0-2.8 1.2-3.3-.3 1.1-1.6 1.8-2.7 1.4-.7-.5-1-1.6-.6-2.5-4.1 3.8-8.7 7-13.6 9.6-3.8 2-7.8 3.6-12 4.6-3.3.8-6.8 1.2-9.9-.1-6.4-2.7-8.5-11-9.4-18.1-5.9 5.6-13.8 9-21.8 9.5 1-.2 1.8-1.2 1.8-2.3-2.5.7-4.9 1.8-7.1 3.3 1-2.3 1.3-4.8.9-7.3-1.1-.1-2.3.2-3.2.8-.9-5.2-.5-10.6 1.1-15.6-2.7 7.5-10.8 12.5-18.4 11.2 3.8 1.4 8.3.5 11.5-2.1 3.2-2.6 4.9-7 4.5-11.2 0 1.6-.6 3.3-1.8 4.4 1.5-3.1 1.9-6.7 1.1-10.1-2 1.6-4 3.1-6 4.7.3-1.4.6-2.8 1-4.2-1.2.6-2.6-1.1-2-2.3-1.5.3-3.1.5-4.6.8l1.2-6.6c-1.2.1-2.5.3-3.7.4.4-1.7.5-3.5.3-5.3-1.6-.1-3.1-.3-4.7-.4 3.3-3.2 5.6-7.6 6.4-12.2-1.5-.5-3.1.6-3.8 2-.8 1.4-.9 3.1-1 4.6-.2 2.8-.3 5.7-.5 8.5-.4-6.9-.7-14 1.1-20.7-1.2 2.7-2.9 5.1-5 7.2.6-1.5 1.2-3 1.8-4.6.4.3-.3 1-.7.7-.4-.3-.4-.9-.4-1.5.2-3.3.7-6.6 1.6-9.7-1.3 2.2-3.1 4.1-5.3 5.5 1.2-2.5 2.2-5.1 2.8-7.8-1.2.7-2.4 1.4-3.5 2.1-.6-1.5-.3-3.3.7-4.5 5.8-6.5 10.2-14.2 13-22.6C67.6 83.2 60.8 91 54 98.7c6-10 12-20 18-30.1-3 1.5-6.1 3.1-9.1 4.6-.5-.8-.7-1.7-.5-2.6 4-.1 7.8-2.1 10.3-5.3l-8.1 3C66.4 62.7 76 62.8 77 56.9c-2.3-.6-4.7-1.2-6.8-.2-2.1 1-3.3 4.3-1.6 5.9-1-2.1-1.3-4.5-1-6.8 3.6-.1 7.2-.3 10.8-.4-.4-1-.6-2.2-.5-3.3 1.7 0 3.3-.1 5-.1.7-1.4 1-3.1 1-4.7.8.5 1.5 1 2.3 1.5.3-1.8.6-3.5.8-5.3.7-1.3 2.6-.2 3.4 1 .8 1.4 2.2 2.9 3.4 2z"></path><path fill="#D3AA6F" d="M75 226.4c.7 1 1.8 1.6 2.9 2.1 31.8 14.3 69.4 13.1 100.3-3.4.7-.4 1.4-.7 1.9-1.3 1.6-1.7 1.4-4.5 1.2-6.9-1-10.9-.1-22 2.7-32.6-7.7-2.3-15.4-4.7-22.6-8.3-2.9-1.5-5.8-3.2-7.9-5.8-5.7-7.1 2.4-20.4 5.3-29-16.8.6-45-1.1-61.8-1.3 2.1 6.2 5.4 17.4 5.9 23.5.7 8.5-7.4 14.5-15.4 17.4-7 2.5-14.1 3.7-21 5.1 2.6 12.6 5.1 25.3 7.7 37.9.1.9.3 1.8.8 2.6z"></path><ellipse cx="84.5" cy="111.7" fill="#D3AA6F" rx="4.9" ry="13.8" transform="rotate(-5.272 84.455 111.675) scale(1.00003)"></ellipse><ellipse cx="170.2" cy="111.7" fill="#D3AA6F" rx="4.9" ry="13.8" transform="rotate(-174.728 170.228 111.67) scale(1.00003)"></ellipse><path fill="#EEC98F" d="M153.3 64.8c-12.3-1.1-23.2.7-35.7 4.4-2.2.7-4.5 1.2-6.9 1.7-5.4 1.8-10.8 3.8-16.2 5.8-1.9 2.2-4.5 3.6-7.3 4-1.5 7-2.3 14.4-2.3 22.1 0 38 19.1 68.8 42.6 68.8s42.6-30.8 42.6-68.8c0-13.4-2.4-25.9-6.5-36.5-3.7-.1-7.1-.6-10.3-1.5z"></path><path fill="#10100F" d="M97 89c1.4.1.9 2.3 0 3.3-4.4 4.7-10 8.1-16.1 9.9 3.3-1.3 6.1-3.9 7.7-7.1-1.6 1.1-3.3 2.3-4.9 3.4-.1-1.8.2-3.7.8-5.4-1 .6-1.9 1.2-2.9 1.8l2.7-4.5c-1.3 1.5-2.9 2.7-4.7 3.6.3-5.7 2.7-11.2 6.7-15.3-2.3 1.1-4.6 2.2-7 3.4 1.9-9.4 9.9-17.3 19.3-19.1-2-2.8-.1-7.4 3.2-8.1 1.6-.3 3.4 0 4.5-1.2.7-.8.8-1.9 1.3-2.8 1.1-1.9 3.5-2.3 5.7-2.5 2.5-.2 5-.5 7.5-.7 1-.1 2.1-.2 2.8.4 4.7-2.9 11-3.1 15.9-.5 1 .6 2.1 1.3 3.2 1.5 2.4.5 5.1-.9 7.1.5.8.6 1.2 1.6 2 2.2 2.2 1.9 5.6.5 8.4 1.2 5.8 1.4 5.7 10.2 10.3 14 1.1 1 2.6 1.6 3.7 2.6s1.9 2.7 1.2 4c2.3-.8 5 .7 6.3 2.8 1.4 2.1 1.7 4.6 2.1 7l1.2 8.4c.4 2.9 1.1 6.1 3.7 7.4-2.4-.4-2.2 4.5-4.5 5.1-.6.1-1.2 0-1.7-.2-2.8-.9-5.4-2.3-7.7-4.2 2 1.6 3.6 3.5 4.7 5.8.3.6.6 1.3.2 1.8-.3.4-.7.5-1.2.6-3.5.7-7-1.5-9.1-4.3-2.1-2.9-3-6.4-3.9-9.8.6 1.2.7 2.6.1 3.8-3.9-2-7.2-5.2-9.3-9.1.9-2.6.2-5.7-1.9-7.7.5.8 1 1.5 1.4 2.3-4-.9-7.8-2.3-11.4-4.2 1.9 2.9 3.4 6 4.5 9.3-2.2-4.6-4.4-9.3-6.7-13.9-.1 1.7.5 3.4 1.5 4.7-1.5-1.6-3.1-3.3-5.3-3.9-2.2-.7-5.3-.7-5.7-3-.2.8-.4 1.6-.6 2.5-2.1-.3-4-1.8-4.7-3.9.3 3.5 1.7 7 3.8 9.8-2.6 0-4.9-2.2-5.7-4.7-.8-2.5-.6-5.2-.3-7.8-1.9 4.2-2.5 8.9-1.7 13.4-1.9-3.9-3.1-8.1-3.5-12.4-6.4 3.6-12.5 7.8-18.1 12.6-.8.7-1.7 1.4-2.1 2.4-.6 2-.8 5.1-2.8 4.8z"></path><path fill="none" d="M66.2 184.7c-2 .1-3.9.3-5.9.4.2.6.5 1.3.7 1.9 1.8-.4 3.6-.8 5.4-1.1 0-.4-.1-.8-.2-1.2zm122.7-2.2c-1.2-.9-2.7-1.3-4.2-.9-.3.9-.5 1.8-.8 2.7 1.2.4 2.5.7 3.7 1.1.5-1 .9-2 1.3-2.9z"></path><path fill="#D3AA6F" d="M203.1 190.1c-5.1-1.8-10.2-3.3-15.4-4.8-5 12.6-5.4 27.1-1.1 40h8.6c.8 0 1.6 0 2.2.5.6.5.8 1.3.9 2 .4 1.7.8 3.4 1.1 5.1 6.3-4.3 12.2-9.1 17.6-14.5 3.9-4.6 7.5-9.4 10.7-14.6-6.9-6.1-15.7-10.6-24.6-13.7zM58 234c.4-2 1.4-3.7 3.2-4.7 1.2-.7 2.8-.9 3.6-2.1.6-.8.6-2 .6-3 0-12.6-.1-25.5-4.3-37.2-7.2 1.6-14.1 3.8-20.4 8.3-4.4 3.1-8.6 6.9-12.3 11.1.5.7 1 1.5 1.5 2.2 7.9 9.7 17.5 18.3 28.1 25.4z"></path><path fill="#0B2C48" d="M64.7 227.2c-.8 1.2-2.3 1.4-3.6 2.1-1.8 1-2.7 2.7-3.2 4.7 20.1 13.3 44.1 21 70 21 26.5 0 51.1-8.1 71.5-22-.4-1.7-.7-3.4-1.1-5.1-.2-.8-.4-1.6-.9-2-.6-.5-1.4-.5-2.2-.5h-8.6c-4.4-12.8-3.9-27.4 1.1-40-1.2-.4-2.5-.7-3.7-1.1-2.8 10.5-3.8 21.7-2.7 32.6.2 2.4.4 5.2-1.2 6.9-.5.6-1.2 1-1.9 1.3-30.8 16.5-68.5 17.7-100.3 3.4-1.1-.5-2.2-1-2.9-2.1-.5-.8-.7-1.7-.9-2.6-2.6-12.6-5.1-25.3-7.7-37.9-1.8.4-3.6.7-5.4 1.1 4.1 11.7 4.2 24.6 4.3 37.2 0 1 0 2.1-.6 3z"></path></svg>