<svg xmlns="http://www.w3.org/2000/svg" viewBox="0 0 512 512" id="animal-avatar"><circle cx="256" cy="256" r="256" fill="#535fa6"></circle><path fill="#474c52" d="M341.49,34.6c.06-2,0-3.3,0-3.61a10.43,10.43,0,0,0-15.84-8.64,10.46,10.46,0,0,1,5,8.64c.06,2.16,1,53-36.33,63.81a4.81,4.81,0,0,0-3.29,4.71v24.28A11,11,0,0,1,286,133a10.35,10.35,0,0,0,6.15,1.52,10.68,10.68,0,0,0,9.74-10.77V99.51a4.81,4.81,0,0,1,3.29-4.71c13.61-4,22.13-13.22,27.46-23.5a34.84,34.84,0,0,1,8.84-36.7Z"></path><path fill="#5b6066" d="M330.7,59.8a34.75,34.75,0,0,0,1.95,11.5c7.22-13.92,8.6-29.7,8.84-36.7A34.72,34.72,0,0,0,330.7,59.8Z"></path><path fill="#3a3e44" d="M330.69,31a10.46,10.46,0,0,0-5-8.64,10.42,10.42,0,0,0-5,9.18c0,.37.2,15-5.13,27.28A39.8,39.8,0,0,0,309,43a41.14,41.14,0,0,0-5.33-6.15,10.4,10.4,0,0,0-3-2,19.94,19.94,0,0,1-5.92,26.41c1.78,7.1-.73,14.6-6,19.85A26,26,0,0,0,281,99.51v24.64a10.41,10.41,0,0,0,5,8.89,11,11,0,0,0,5.06-9.25V99.51a4.81,4.81,0,0,1,3.29-4.71C331.69,84,330.75,33.15,330.69,31Z"></path><path fill="#313438" d="M303.28,44.84a19.87,19.87,0,0,0-2.69-10A10.5,10.5,0,0,0,288.2,38a10.59,10.59,0,0,0,1.15,14,18.93,18.93,0,0,1,4.82,7.5c.2.56.36,1.13.5,1.69A20,20,0,0,0,303.28,44.84Z"></path><path fill="#474c52" d="M169.47,34.6c-.07-2,0-3.3,0-3.61a10.43,10.43,0,0,1,15.84-8.64,10.43,10.43,0,0,0-5,8.64c-.06,2.16-1,53,36.32,63.81a4.82,4.82,0,0,1,3.3,4.71v24.28A11,11,0,0,0,225,133a10.37,10.37,0,0,1-6.15,1.52,10.67,10.67,0,0,1-9.74-10.77V99.51a4.82,4.82,0,0,0-3.3-4.71c-13.61-4-22.13-13.22-27.46-23.5a34.86,34.86,0,0,0-8.83-36.7Z"></path><path fill="#5b6066" d="M180.25,59.8a34.75,34.75,0,0,1-1.95,11.5c-7.22-13.92-8.59-29.7-8.83-36.7A34.75,34.75,0,0,1,180.25,59.8Z"></path><path fill="#3a3e44" d="M180.27,31a10.43,10.43,0,0,1,5-8.64,10.43,10.43,0,0,1,5,9.18c0,.37-.2,15,5.13,27.28A39.8,39.8,0,0,1,202,43a40.57,40.57,0,0,1,5.33-6.15,10.14,10.14,0,0,1,3-2,19.92,19.92,0,0,0,5.91,26.41c-1.78,7.1.73,14.6,6,19.85a26,26,0,0,1,7.65,18.4v24.64a10.43,10.43,0,0,1-5,8.89,11,11,0,0,1-5.06-9.25V99.51a4.82,4.82,0,0,0-3.3-4.71C179.27,84,180.21,33.15,180.27,31Z"></path><path fill="#313438" d="M207.67,44.84a19.78,19.78,0,0,1,2.7-10A10.49,10.49,0,0,1,222.75,38a10.6,10.6,0,0,1-1.14,14,19.06,19.06,0,0,0-4.83,7.5c-.2.56-.36,1.13-.5,1.69A20,20,0,0,1,207.67,44.84Z"></path><path fill="#dead53" d="M293.05,400.28v-1H220.64v1H181.25v72.4h60.89v-6.07a4,4,0,0,1,4.19-4.05q9.64.39,19.31,0a4,4,0,0,1,4.18,4v6H330.7v-72.4Z"></path><path fill="#467b4c" d="M199.52,307.81a56.64,56.64,0,0,0-28.45,7.62v45.91A15.69,15.69,0,0,1,155.38,377h28.45a15.68,15.68,0,0,0,15.69-15.69V307.81Z"></path><path fill="#508d5b" d="M171.07,361.34V315.43a56.89,56.89,0,0,0-28.49,49.31v11.59l.7.7h12.1A15.69,15.69,0,0,0,171.07,361.34Z"></path><path fill="#2d2319" d="M167.69,377v3.26a21.76,21.76,0,0,1-11.08,19,25.59,25.59,0,0,0,11.71,2.82h9.42a21.78,21.78,0,0,0,21.78-21.78V377Z"></path><path fill="#37291c" d="M167.69,380.29V377H142.6a25.73,25.73,0,0,0,14,22.22A21.76,21.76,0,0,0,167.69,380.29Z"></path><circle cx="255.63" cy="398.68" r="49.39" fill="#cd9b53"></circle><circle cx="255.63" cy="398.68" r="37.24" fill="#dfb46e"></circle><path fill="#467b4c" d="M312.91,307.81a56.7,56.7,0,0,1,28.45,7.62v45.91A15.68,15.68,0,0,0,357,377H328.59a15.68,15.68,0,0,1-15.68-15.69V307.81Z"></path><path fill="#508d5b" d="M341.36,361.34V315.43a56.91,56.91,0,0,1,28.48,49.31v11.59l-.69.7H357A15.68,15.68,0,0,1,341.36,361.34Z"></path><path fill="#2d2319" d="M344.73,377v3.26a21.75,21.75,0,0,0,11.09,19,25.66,25.66,0,0,1-11.72,2.82h-9.41a21.78,21.78,0,0,1-21.78-21.78V377Z"></path><path fill="#37291c" d="M344.73,380.29V377h25.1a25.75,25.75,0,0,1-14,22.22A21.75,21.75,0,0,1,344.73,380.29Z"></path><path fill="#3e6d43" d="M286.56,295.28H225.4a44.15,44.15,0,0,0-44.15,44.15V354A44.15,44.15,0,0,1,225.4,309.9h61.16A44.14,44.14,0,0,1,330.7,354V339.43A44.15,44.15,0,0,0,286.56,295.28Z"></path><path fill="#508d5b" d="M286.56,309.9H225.4A44.15,44.15,0,0,0,181.25,354v54.64H330.7V354A44.14,44.14,0,0,0,286.56,309.9Z"></path><path fill="#936431" d="M242.14,309.42V295.28H231.7v14.14a10.91,10.91,0,0,0,10.91,10.91h10.44A10.9,10.9,0,0,1,242.14,309.42Z"></path><path fill="#a47132" d="M279.56,309.42V295.28H242.14v14.14a10.9,10.9,0,0,0,10.91,10.91h15.6A10.91,10.91,0,0,0,279.56,309.42Z"></path><path fill="#c7984d" d="M181.89,138.8l3.83-4.34,2.61-7.18s6-31.74-58.49-35.39a1.86,1.86,0,0,0-2,1.8c0,.58,0,1.3,0,2.12C142.11,100.47,175.36,113.85,181.89,138.8Z"></path><path fill="#dead53" d="M181.89,138.8a37.05,37.05,0,0,0-3.87-9.24l-5.61,14.93c-27.12-1-37.76-38.65-39.8-47-1.74-.64-3.34-1.19-4.75-1.65,0,13.43,3.71,56.43,48.64,64.09l9.22-25.44Z"></path><path fill="#bf6d6e" d="M172.41,144.49,178,129.56c-9.82-16.9-31.89-27.17-45.41-32.1C134.65,105.84,145.29,143.45,172.41,144.49Z"></path><path fill="#c7984d" d="M328.19,138.8l-3.84-4.34-2.6-7.18s-6-31.74,58.48-35.39a1.86,1.86,0,0,1,2,1.8c0,.58,0,1.3,0,2.12C368,100.47,334.71,113.85,328.19,138.8Z"></path><path fill="#dead53" d="M328.19,138.8a36.65,36.65,0,0,1,3.86-9.24l5.61,14.93c27.12-1,37.76-38.65,39.8-47,1.74-.64,3.34-1.19,4.75-1.65,0,13.43-3.71,56.43-48.64,64.09l-9.22-25.44Z"></path><path fill="#bf6d6e" d="M337.66,144.49l-5.61-14.93c9.82-16.9,31.9-27.17,45.41-32.1C375.42,105.84,364.78,143.45,337.66,144.49Z"></path><path fill="#eeb46a" d="M171.36 288.25A45.56 45.56 0 0 1 164.87 260L180 148.15a24 24 0 0 1 24-24H188.33a24 24 0 0 0-24 24L149.19 260a45.63 45.63 0 0 0 6.5 28.21c4.34 6.95 10.34 12.25 17 12.25h15.68C181.71 300.5 175.71 295.2 171.36 288.25zM362.07 260L346.93 148.15a24 24 0 0 0-24-24H309.37a24 24 0 0 1 24 24L348.5 260a45.63 45.63 0 0 1-6.5 28.21c-4.34 6.95-10.34 12.25-17 12.25H338.6c6.63 0 12.63-5.3 17-12.25A45.63 45.63 0 0 0 362.07 260z"></path><path fill="#dead53" d="M342,288.25A45.63,45.63,0,0,0,348.5,260L333.37,148.15a24,24,0,0,0-24-24H204a24,24,0,0,0-24,24L164.87,260a45.56,45.56,0,0,0,6.49,28.21c4.35,6.95,10.35,12.25,17,12.25H325C331.66,300.5,337.66,295.2,342,288.25Z"></path><path fill="#b38849" d="M256,224.67h-17a44.18,44.18,0,0,0-44.17,44.18v16a15.65,15.65,0,0,0,15.65,15.65h1.39V268.85A44.18,44.18,0,0,1,256,224.67Z"></path><path fill="#cd9b53" d="M272.33,224.67H257.72a44.18,44.18,0,0,1,44.17,44.18v16a15.65,15.65,0,0,1-15.65,15.65h14.61a15.65,15.65,0,0,0,15.65-15.65v-16A44.18,44.18,0,0,0,272.33,224.67Z"></path><path fill="#be914a" d="M301.89,284.85v-16a44.18,44.18,0,0,0-44.17-44.18H256a44.18,44.18,0,0,0-44.18,44.18V300.5h74.44A15.65,15.65,0,0,0,301.89,284.85Z"></path><rect width="53.92" height="71.27" x="177.37" y="159.9" fill="#eeb46a" rx="26.96"></rect><rect width="33.15" height="45.55" x="187.28" y="172.46" fill="#49351e" rx="16.58"></rect><circle cx="208.66" cy="187.02" r="8.99" fill="#fffcfa"></circle><rect width="53.92" height="71.27" x="283.28" y="159.9" fill="#eeb46a" rx="26.96"></rect><rect width="33.15" height="45.55" x="293.2" y="172.46" fill="#49351e" rx="16.58"></rect><circle cx="314.58" cy="187.02" r="8.99" fill="#fffcfa"></circle><line x1="255.63" x2="255.63" y1="240.32" y2="288.49" fill="none" stroke="#37291c" stroke-miterlimit="10" stroke-width="8"></line><path fill="none" stroke="#37291c" stroke-linecap="round" stroke-miterlimit="10" stroke-width="8" d="M231.28,262.06a24.35,24.35,0,0,0,48.7,0"></path><path fill="#37291c" d="M266.08,244h-20.9a19.29,19.29,0,0,1-18.87-15.29,19.52,19.52,0,0,0-.42,4h0A19.29,19.29,0,0,0,245.18,252h20.9a19.29,19.29,0,0,0,19.29-19.29h0a19.52,19.52,0,0,0-.42-4A19.29,19.29,0,0,1,266.08,244Z"></path><path fill="#49351e" d="M245.18,244h20.9A19.29,19.29,0,0,0,285,228.67a19.3,19.3,0,0,0-18.87-15.29h-20.9a19.3,19.3,0,0,0-18.87,15.29A19.29,19.29,0,0,0,245.18,244Z"></path><ellipse cx="260.85" cy="226.59" fill="#594025" rx="16" ry="9.22"></ellipse><ellipse cx="263.47" cy="224.67" fill="#6d4c2c" rx="7.84" ry="4.51"></ellipse><path fill="#7eba80" d="M321.53 358.11a4.12 4.12 0 0 1-2.95-1.22l-14.13-14.13-14 14a4.17 4.17 0 0 1-5.9 0l-14-14-13.47 13.47a4.19 4.19 0 0 1-5.91 0l-13.46-13.46-12.62 12.62a4.16 4.16 0 0 1-5.91 0l-12.62-12.62-13.95 14a4.17 4.17 0 0 1-5.9-5.9l16.9-16.91a4.18 4.18 0 0 1 5.9 0l12.63 12.63 12.62-12.63a4.18 4.18 0 0 1 5.9 0l13.46 13.46 13.48-13.47a4.17 4.17 0 0 1 5.9 0l14 14 14-14a4.18 4.18 0 0 1 5.91 0L324.48 351a4.17 4.17 0 0 1 0 5.9A4.12 4.12 0 0 1 321.53 358.11zM321.53 392a4.13 4.13 0 0 1-2.95-1.23l-14.13-14.13-14 14a4.17 4.17 0 0 1-5.9 0l-14-14-13.47 13.47a4.16 4.16 0 0 1-5.91 0l-13.46-13.46-12.62 12.63a4.19 4.19 0 0 1-5.91 0l-12.62-12.63-13.95 13.95a4.17 4.17 0 0 1-5.9-5.9l16.9-16.9a4.18 4.18 0 0 1 5.9 0l12.63 12.62 12.62-12.62a4.18 4.18 0 0 1 5.9 0l13.46 13.46 13.48-13.47a4.17 4.17 0 0 1 5.9 0l14 14 14-14a4.18 4.18 0 0 1 5.91 0l17.08 17.08a4.18 4.18 0 0 1-3 7.13z"></path><path fill="#453322" d="M239.63,469.2A73.49,73.49,0,0,0,217,464a71.23,71.23,0,0,0-31.31,5.23,12.17,12.17,0,0,0-7.65,11.31v7.65a5.92,5.92,0,0,0,5.92,5.92h8.69a5.92,5.92,0,0,1-5.91-5.92v-7.65a12.17,12.17,0,0,1,7.65-11.31,74.74,74.74,0,0,1,18.26-4.8,74.81,74.81,0,0,1,18.27,4.8,12.17,12.17,0,0,1,7.65,11.31v7.65a5.92,5.92,0,0,1-5.92,5.92h8.7a5.92,5.92,0,0,0,5.91-5.92v-7.65A12.16,12.16,0,0,0,239.63,469.2Zm-24.89-5-2.07.24Z"></path><path fill="#2d2319" d="M238.59,488.16v-7.65a12.17,12.17,0,0,0-7.65-11.31,74.81,74.81,0,0,0-18.27-4.8,74.74,74.74,0,0,0-18.26,4.8,12.17,12.17,0,0,0-7.65,11.31v7.65a5.92,5.92,0,0,0,5.91,5.92h40A5.92,5.92,0,0,0,238.59,488.16Z"></path><path fill="#453322" d="M273.89,488.16v-7.65a12.17,12.17,0,0,1,7.65-11.31A73.56,73.56,0,0,1,304.15,464a71.25,71.25,0,0,0-31.31,5.23,12.16,12.16,0,0,0-7.64,11.31v7.65a5.91,5.91,0,0,0,5.91,5.92h8.69A5.92,5.92,0,0,1,273.89,488.16Z"></path><path fill="#453322" d="M326.77,469.2A73.62,73.62,0,0,0,304.15,464c-1.45.09-2.9.25-4.35.43a74.81,74.81,0,0,1,18.27,4.8,12.17,12.17,0,0,1,7.65,11.31v7.65a5.92,5.92,0,0,1-5.91,5.92h8.69a5.91,5.91,0,0,0,5.91-5.92v-7.65A12.16,12.16,0,0,0,326.77,469.2Z"></path><path fill="#2d2319" d="M325.72,488.16v-7.65a12.17,12.17,0,0,0-7.65-11.31,74.81,74.81,0,0,0-18.27-4.8,74.86,74.86,0,0,0-18.26,4.8,12.17,12.17,0,0,0-7.65,11.31v7.65a5.92,5.92,0,0,0,5.91,5.92h40A5.92,5.92,0,0,0,325.72,488.16Z"></path></svg>