<svg xmlns="http://www.w3.org/2000/svg" enable-background="new 0 0 512 512" viewBox="0 0 512 512" id="baboon"><circle cx="256" cy="256" r="252.5" fill="#FFD05B"></circle><circle cx="393.2" cy="206.3" r="62" fill="#FF7058"></circle><circle cx="380.8" cy="218.7" r="49.6" fill="#F1543F"></circle><circle cx="118.8" cy="206.3" r="62" fill="#FF7058"></circle><circle cx="131.2" cy="218.7" r="49.6" fill="#F1543F"></circle><path fill="#FF7058" d="M379.4,265.5c0,74-55.2,164.1-123.4,164.1s-123.4-90.1-123.4-164.1c0-74,55.2-103.7,123.4-103.7   S379.4,191.5,379.4,265.5z"></path><path fill="#E6E9EE" d="M356.9,251.4c-3.3-24.2-23.4-43.3-47.7-45.6c-12.3-1.2-23.8,1.9-33.3,7.8c-12.3,7.7-27.5,7.7-39.8,0   c-9.5-5.9-21-9-33.3-7.8c-24.3,2.3-44.4,21.5-47.7,45.6c-3.5,25.7,11.3,48.4,33.2,57.1c0,0,0.1,0,0.1,0.1c6,2.4,8.8,9.5,6.4,15.6   c-3.1,8-4.7,16.7-4.4,25.8c1,33.8,28.6,61.9,62.4,63.5c37.7,1.8,68.8-28.2,68.8-65.5c0-8.4-1.6-16.5-4.5-23.9   c-2.3-6,0.5-13.1,6.5-15.5c0,0,0.1,0,0.1-0.1C345.6,299.8,360.4,277.1,356.9,251.4z"></path><path fill="#ACB3BA" d="M279.4,349.9c0,18.1-10.5,21.5-23.4,21.5c-12.9,0-23.4-3.4-23.4-21.5c0-18.1,10.5-44,23.4-44   C268.9,305.9,279.4,331.9,279.4,349.9z"></path><ellipse cx="265.8" cy="357.7" fill="#324A5E" rx="5.7" ry="11" transform="rotate(35.423 265.823 357.783)"></ellipse><ellipse cx="246.2" cy="357.7" fill="#324A5E" rx="5.7" ry="11" transform="rotate(144.577 246.2 357.735)"></ellipse><circle cx="306.3" cy="262.7" r="28.6" fill="#FFF"></circle><circle cx="306.3" cy="262.7" r="15.8" fill="#324A5E"></circle><circle cx="298.3" cy="252" r="8" fill="#FFF"></circle><circle cx="308.3" cy="262" r="3.4" fill="#FFF"></circle><g><circle cx="205.7" cy="262.7" r="28.6" fill="#FFF"></circle><circle cx="205.7" cy="262.7" r="15.8" fill="#324A5E"></circle><circle cx="197.6" cy="252" r="8" fill="#FFF"></circle><circle cx="207.6" cy="262" r="3.4" fill="#FFF"></circle></g><path fill="#ACB3BA" d="M304.7,367.5c0,19.5-21.8,35.4-48.7,35.4c-26.9,0-48.7-15.9-48.7-35.4c0-2.6,0.4-5.1,1.1-7.6   c4.7,15.9,24.2,27.8,47.6,27.8s42.8-11.9,47.6-27.8C304.3,362.4,304.7,364.9,304.7,367.5z"></path></svg>