<svg xmlns="http://www.w3.org/2000/svg" enable-background="new 0 0 512 512" viewBox="0 0 512 512" id="cow"><circle cx="256" cy="256" r="252.5" fill="#54C0EB"></circle><path fill="#FFF" d="M271.3 138.2c0 0 59.4-33.2 70.2-66.5 0 0 13.9 64.6-50.7 76L271.3 138.2zM240.7 138.2c0 0-59.4-33.2-70.2-66.5 0 0-13.9 64.6 50.7 76L240.7 138.2z"></path><path fill="#2B3B4E" d="M323.1,187.7c0,0,52.4-83.2,122.8-44.3c0,0,23.7,15.9-36.1,67.6c0,0-11,20.5-82.8-7.4l-3.9-18.1"></path><path fill="#324A5E" d="M420.4,134.2c-1,0.3-61.3,20.9-80.2,74.3c-4.1-1.4-8.5-3-13.2-4.8l-3.5-16.5    C327.4,181.2,366.2,124.6,420.4,134.2z"></path><path fill="#2B3B4E" d="M188.9,187.7c0,0-52.4-83.2-122.8-44.3c0,0-23.7,15.9,36.1,67.6c0,0,11,20.5,82.8-7.4l3.9-18.1"></path><path fill="#324A5E" d="M91.6,134.2c1,0.3,61.3,20.9,80.2,74.3c4.1-1.4,8.5-3,13.2-4.8l3.5-16.5    C184.6,181.2,145.8,124.6,91.6,134.2z"></path><path fill="#E6E9EE" d="M328.3,145.3c-4.2-9.2-12.8-15.8-23-17.6l-25.1-4.4c-6.4-1.1-13-1.7-19.5-1.7h-9.3    c-6.5,0-13.1,0.6-19.5,1.7l-25.1,4.4c-10.2,1.8-18.8,8.4-23,17.6c-11.5,25.4-29.9,79.3-8.8,131.3c0,0,32,102.2,16.4,142.5    c0,0,1.3,39.5,64.7,34.6v0c63.4,4.9,64.7-34.6,64.7-34.6C305.1,378.8,337,276.6,337,276.6C358.2,224.6,339.8,170.7,328.3,145.3z"></path><path fill="#CED5E0" d="M286.3,388H226c20.3-162.2-31.2-225.6-31.2-225.6c27.2,0,57.4-18.6,61.1-20.9v-0.2c0,0,0.1,0,0.2,0.1    c0.1-0.1,0.2-0.1,0.2-0.1v0.2c3.7,2.3,33.9,20.9,61.1,20.9C317.5,162.4,266.1,225.7,286.3,388z"></path><path fill="#CED5E0" d="M337,276.6c0,0-11.4,36.4-17.2,74.3c-42-135.9,4.9-153,24.4-154.6C348.3,220.5,348.3,248.8,337,276.6z"></path><path fill="#324A5E" d="M347.2,224c0,0-21.5,2.1-28.4,31.9c0,0,12.1-0.5,21.3-3.7c6.4-2.3,10.2-8.8,9.1-15.5L347.2,224z"></path><path fill="#CED5E0" d="M175,276.6c0,0,11.4,36.4,17.2,74.3c42-135.9-4.9-153-24.4-154.6C163.7,220.5,163.7,248.8,175,276.6z"></path><path fill="#324A5E" d="M164.8,224c0,0,21.5,2.1,28.4,31.9c0,0-12.1-0.5-21.3-3.7c-6.4-2.3-10.2-8.8-9.1-15.5L164.8,224z"></path><ellipse cx="256" cy="415.5" fill="#324A5E" rx="66" ry="43.4"></ellipse><path fill="#2B3B4E" d="M211.5 401.6c0 0 4-11.1 7 0 1.4 5 3.9 9.7 7.3 13.6 2.9 3.4 6.2 7.2 8.6 9.6 2.8 2.7 4.7 6.3 5.2 10.1.8 5.7-1.6 11.2-17.9 4 0 0-3.9-1.2-7.7-9-3.7-7.6-4.7-16.2-3.3-24.4L211.5 401.6zM300.5 401.6c0 0-4-11.1-7 0-1.4 5-3.9 9.7-7.3 13.6-2.9 3.4-6.2 7.2-8.6 9.6-2.8 2.7-4.7 6.3-5.2 10.1-.8 5.7 1.6 11.2 17.9 4 0 0 3.9-1.2 7.7-9 3.7-7.6 4.7-16.2 3.3-24.4L300.5 401.6z"></path><g><path fill="#F9B54C" d="M168.6,224.9c-2,2.8-3.3,7-3.3,11.6c0,8.5,4.2,15.4,9.4,15.4c5.2,0,9.4-6.9,9.4-15.4c0-0.2,0-0.4,0-0.6     C178.6,229.2,172.5,226.2,168.6,224.9z"></path><ellipse cx="173.5" cy="235.5" fill="#1A2735" rx="4.3" ry="7.1"></ellipse></g><g><path fill="#F9B54C" d="M343.4,224.9c2,2.8,3.3,7,3.3,11.6c0,8.5-4.2,15.4-9.4,15.4c-5.2,0-9.4-6.9-9.4-15.4c0-0.2,0-0.4,0-0.6     C333.5,229.2,339.6,226.2,343.4,224.9z"></path><ellipse cx="338.5" cy="235.5" fill="#1A2735" rx="4.3" ry="7.1"></ellipse></g></svg>