<svg xmlns="http://www.w3.org/2000/svg" enable-background="new 0 0 512 512" viewBox="0 0 512 512" id="bear"><circle cx="256" cy="256" r="252.5" fill="#FFD05B"></circle><path fill="#ECEFF8" d="M438.9,121.3c-2.7-0.8-5.5,0.6-7.9,1.9c-6.5,3.5-13.1,7.1-18.8,11.8c-11.8,9.6-19.9,23.9-33.6,30.4     l4.7,53.8c-0.9,2.5,3.2,3.4,5.7,2.8c14-3.3,28.1-7.9,39.1-17.1c11.1-9.2,18.6-23.7,16.2-37.8c-1.4-8.2-6.1-16.3-4.4-24.5     c0.8-3.9,3-7.5,3.7-11.4C444.1,127.3,442.7,122.4,438.9,121.3z"></path><path fill="#ACB3BA" d="M405.2,160.1c2.3-3.2,4.1-6.8,5.9-10.3c1.2-2.4,2.4-4.8,3.7-7.2c1.1,5.9,1.6,11.9,1.7,17.9     c7.5-2.9,12.8-10.8,12.6-18.9c2.4,7.6,3.6,15.6,3.6,23.6c0,4.5-0.5,9-2.5,13c-2.6,5.1-7.8,8.7-13.4,9.5c3.3,0.3,6.7,0.7,10-0.1     c3.3-0.8,6.4-2.9,7.4-6.1c-3.5,10-13.2,16.7-23.2,20.2c-6.7,2.3-13.7,3.6-20.8,3.5c-7.4-0.1-14.8-1.7-22-3.3     c2.3-4.6,4.7-9.1,7-13.7c1.5-2.8,2.9-5.7,4.9-8.2c1.1-1.5,2.5-3,2.5-4.9c0-0.7-0.2-1.4,0.1-2c0.5-0.8,1.6-0.9,2.6-0.9     C393.2,171.9,400.5,166.7,405.2,160.1z"></path><path fill="#ECEFF8" d="M73.1,121.3c2.7-0.8,5.5,0.6,7.9,1.9c6.5,3.5,13.1,7.1,18.8,11.8c11.8,9.6,19.9,23.9,33.6,30.4l-4.7,53.8     c0.9,2.5-3.2,3.4-5.7,2.8c-14-3.3-28.1-7.9-39.1-17.1c-11.1-9.2-18.6-23.7-16.2-37.8c1.4-8.2,6.1-16.3,4.4-24.5     c-0.8-3.9-3-7.5-3.7-11.4C67.9,127.3,69.3,122.4,73.1,121.3z"></path><path fill="#ACB3BA" d="M106.8,160.1c-2.3-3.2-4.1-6.8-5.9-10.3c-1.2-2.4-2.4-4.8-3.7-7.2c-1.1,5.9-1.6,11.9-1.7,17.9     c-7.5-2.9-12.8-10.8-12.6-18.9c-2.4,7.6-3.6,15.6-3.6,23.6c0,4.5,0.5,9,2.5,13c2.6,5.1,7.8,8.7,13.4,9.5c-3.3,0.3-6.7,0.7-10-0.1     c-3.3-0.8-6.4-2.9-7.4-6.1c3.5,10,13.2,16.7,23.2,20.2c6.7,2.3,13.7,3.6,20.8,3.5c7.4-0.1,14.8-1.7,22-3.3     c-2.3-4.6-4.7-9.1-7-13.7c-1.5-2.8-2.9-5.7-4.9-8.2c-1.1-1.5-2.5-3-2.5-4.9c0-0.7,0.2-1.4-0.1-2c-0.5-0.8-1.6-0.9-2.6-0.9     C118.8,171.9,111.5,166.7,106.8,160.1z"></path><path fill="#ECEFF8" d="M404.9,211c0.1-12.5-1.4-25.4-7.4-36.4c-6-11-17.2-19.8-29.7-20.2c3.8-4.5,7.5-8.9,11.3-13.4     c-14.1,0-26.8-7.6-39.3-14.1c-12.5-6.5-26.9-12.1-40.3-8c2.6-4.6,6.5-8.4,11.2-10.8c-18-0.7-36,2.3-52.8,8.7     c-16.8-6.4-34.9-9.4-52.8-8.7c4.7,2.4,8.7,6.2,11.2,10.8c-13.5-4.1-27.8,1.5-40.3,8c-12.5,6.5-25.2,14.1-39.3,14.1     c3.8,4.5,7.5,8.9,11.3,13.4c-12.5,0.4-23.7,9.2-29.7,20.2c-6,11-7.5,23.9-7.4,36.4c0.1,20.5,4.3,41.1,12.2,60     c0.3-6.9,0.5-13.8,0.8-20.7c-2.1,29.5,9.2,59.8,30.2,80.7c-2.5-7.7-4.9-15.4-7.4-23.1c3.5,6.5,7.1,13,9.1,20.2     c1.6,6,2.1,12.4,3.6,18.4c4.6,18.2,19.9,33.2,38.1,37.6c-3.9-5.8-6.8-12.2-8.7-18.8c10.7,26.6,40.7,43.8,69.1,40.5     c28.4,3.4,58.4-13.8,69.1-40.5c-1.9,6.7-4.8,13.1-8.7,18.8c18.2-4.4,33.5-19.5,38.1-37.6c1.5-6.1,2-12.4,3.6-18.4     c1.9-7.1,5.5-13.7,9.1-20.2c-2.5,7.7-4.9,15.4-7.4,23.1c20.9-21,32.2-51.2,30.2-80.7c0.3,6.9,0.5,13.8,0.8,20.7     C400.6,252,404.8,231.5,404.9,211z"></path><circle cx="305.1" cy="227.2" r="16.9" fill="#324A5E"></circle><circle cx="206.9" cy="227.2" r="16.9" fill="#324A5E"></circle><circle cx="206.9" cy="227.2" r="7.4" fill="#15202B"></circle><circle cx="305.1" cy="227.2" r="7.4" fill="#15202B"></circle><path fill="#FFF" d="M317.3 205.3c-5.3-2.2-11.3-.6-17-1.3 3.7-4.1 9.5-5.8 15-5.7 5.5 0 10.9 1.6 16.2 3.2 2.3.7 4.7 1.4 7 2.1-5.3-3.2-10.5-6.3-15.8-9.5-1-.6-2-1.2-3.1-1.6-1.5-.5-3.1-.5-4.7-.5-9.8 0-20.5 1.4-27.5 8.3 1-3.8 4.2-6.6 7.3-9 5-3.9 10.1-7.9 16-10.3 7.5-2.9 15.8-3 23.8-3-12.9-3.3-26.8-2.4-39.1 2.6-3.7 1.5-7.2 3.3-10.7 5.2-4.7 2.5-9.7 5.1-12.7 9.5-1.5 2.1-2.5 4.6-4.5 6.3-1-13.1 8.1-26.2 20.7-29.9-5.3 1.8-10.5 4.1-15.5 6.7-6.7 3.5-13.4 8-16.6 14.9-.1.3-.2.6-.3.9-.1-.3-.2-.6-.3-.9-3.2-6.9-9.9-11.4-16.6-14.9-5-2.6-10.2-4.8-15.5-6.7 12.6 3.6 21.7 16.8 20.7 29.9-2-1.7-3-4.1-4.5-6.3-3.1-4.4-8-7-12.7-9.5-3.5-1.8-7.1-3.7-10.7-5.2-12.3-5-26.3-5.9-39.1-2.6 8.1 0 16.3 0 23.8 3 5.9 2.3 11 6.3 16 10.3 3.1 2.5 6.4 5.2 7.3 9-7-6.9-17.6-8.2-27.5-8.3-1.6 0-3.2 0-4.7.5-1.1.4-2.1 1-3.1 1.6-5.3 3.2-10.5 6.3-15.8 9.5 2.3-.7 4.7-1.4 7-2.1 5.3-1.6 10.7-3.1 16.2-3.2 5.5 0 11.3 1.7 15 5.7-5.7.6-11.7-.9-17 1.3-2.1.9-4 2.3-5.8 3.8-3 2.4-6.1 4.8-9.1 7.2 7-2.6 14.3-4.4 21.7-5.4 5.6-.8 11.4-1 16.9.4 5.5 1.4 10.7 4.6 13.5 9.5-4.3-1-9.1-1.9-12.9.3-2.1 1.2-3.6 3.3-5.5 4.8-1.3 1.1-3 1.8-4.7 1.8 6.8 1.8 14 2.2 21 1.3-4.5 3.8-10 6.4-15.8 7.2 8.2 1.5 16.8.4 24.3-3.1-.7 1.3-1.5 2.7-1.1 4.1.4 1.5 1.9 2.3 3.3 3 4.9 2.5 9.9 5.5 12.8 10.2 1.3 2.1 2.1 4.4 2.7 6.8.6-2.4 1.4-4.7 2.7-6.8 2.9-4.7 7.9-7.6 12.8-10.2 1.4-.7 2.9-1.5 3.3-3 .4-1.4-.4-2.9-1.1-4.1 7.5 3.5 16.1 4.6 24.3 3.1-5.8-.9-11.4-3.4-15.8-7.2 7 1 14.2.5 21-1.3-1.6 0-3.3-.7-4.7-1.8-1.9-1.5-3.4-3.6-5.5-4.8-3.8-2.2-8.6-1.3-12.9-.3 2.8-4.9 8-8.2 13.5-9.5 5.5-1.4 11.3-1.1 16.9-.4 7.4 1 14.7 2.8 21.7 5.4-3-2.4-6.1-4.8-9.1-7.2C321.3 207.6 319.5 206.2 317.3 205.3zM334.7 350.4c-.3-1.1-.7-2.4-1.1-3.9-.4-1.5-1.3-3.1-2-4.9-.8-1.8-1.6-3.7-2.9-5.6-1.2-1.9-2.4-4-4.1-5.8-1.6-1.9-3.3-3.9-5.3-5.6-1-.9-2-1.8-3-2.6l-3.3-2.3c-2.2-1.7-4.7-2.7-7-4.1-2.4-1.1-4.9-2.2-7.3-3-2.4-.8-4.8-1.6-7.1-2.1-2.3-.6-4.5-1-6.5-1.3-4.1-.6-7.5-.9-10-1-1.2-.1-2.3 0-3 0-.6 0-1 0-1 0l.7 6c-1.6-.3-3.1-.6-4.5-.9-3.4-.5-6.3-.8-8.6-.9l0-.1c0 0-.3 0-1 0-.5 0-1 0-1.7 0-.6 0-1.2 0-1.7 0-.6 0-1 0-1 0l0 .1c-2.3.1-5.2.4-8.6.9-1.4.3-3 .5-4.5.9l.7-6c0 0-.3 0-1 0-.7 0-1.8 0-3 0-2.5.1-5.9.3-10 1-2 .4-4.2.7-6.5 1.3-2.3.5-4.7 1.3-7.1 2.1-2.4.8-4.8 1.9-7.3 3-2.3 1.3-4.8 2.4-7 4.1l-3.3 2.3c-1 .9-2 1.8-3 2.6-2.1 1.7-3.7 3.7-5.3 5.6-1.7 1.8-2.9 3.9-4.1 5.8-1.3 1.8-2.2 3.8-2.9 5.6-.7 1.8-1.6 3.3-2 4.9-.4 1.5-.8 2.8-1.1 3.9-.6 2.1-1 3.3-1 3.3s.6-1.1 1.6-3.1c.5-1 1.1-2.2 1.8-3.5.6-1.4 1.8-2.7 2.8-4.3 1-1.5 2.2-3.2 3.7-4.7 1.5-1.5 2.8-3.3 4.7-4.6 1.8-1.4 3.5-2.9 5.6-4.1 1-.6 2-1.2 3-1.8l3.2-1.5c2.1-1.1 4.4-1.6 6.6-2.4 2.3-.5 4.5-1.1 6.6-1.4 1.4-.2 2.7-.4 4.1-.5-1.1.6-2.1 1.2-3.1 2l-3.3 2.3c-1 .9-2 1.8-3 2.6-2.1 1.7-3.7 3.7-5.3 5.6-1.7 1.8-2.9 3.9-4.1 5.8-1.3 1.8-2.2 3.8-2.9 5.6-.7 1.8-1.6 3.3-2 4.9-.4 1.5-.8 2.8-1.1 3.9-.6 2.1-1 3.3-1 3.3s.6-1.1 1.6-3.1c.5-1 1.1-2.2 1.8-3.5.6-1.4 1.8-2.7 2.8-4.3 1-1.5 2.2-3.2 3.7-4.7 1.5-1.5 2.8-3.3 4.7-4.6 1.8-1.4 3.5-2.9 5.6-4.1 1-.6 2-1.2 3-1.8l3.2-1.5c2.1-1.1 4.4-1.6 6.6-2.4 2.3-.5 4.5-1.1 6.6-1.4 2.2-.3 4.3-.6 6.3-.7 2-.2 3.9-.1 5.7-.1 3.5.1 6.4.4 8.3.7.5.1.8.1 1.1.2l0 .4c0 0 .3-.1.8-.2 0 0 0 0 .1 0 0 0 0 0 .1 0 .5.1.8.2.8.2l0-.4c.3-.1.7-.1 1.1-.2 1.9-.3 4.8-.6 8.3-.7 1.7 0 3.7-.1 5.7.1 2 .1 4.1.4 6.3.7 2.2.3 4.4.9 6.6 1.4 2.2.8 4.5 1.3 6.6 2.4l3.2 1.5c1 .6 2 1.2 3 1.8 2.1 1.1 3.8 2.6 5.6 4.1 1.9 1.3 3.2 3.1 4.7 4.6 1.5 1.5 2.7 3.1 3.7 4.7 1 1.6 2.2 2.9 2.8 4.3.7 1.4 1.3 2.6 1.8 3.5 1 2 1.6 3.1 1.6 3.1s-.4-1.2-1-3.3c-.3-1.1-.7-2.4-1.1-3.9-.4-1.5-1.3-3.1-2-4.9-.8-1.8-1.6-3.7-2.9-5.6-1.2-1.9-2.4-4-4.1-5.8-1.6-1.9-3.3-3.9-5.3-5.6-1-.9-2-1.8-3-2.6l-3.3-2.3c-1-.8-2-1.4-3.1-2 1.3.1 2.7.3 4.1.5 2.2.3 4.4.9 6.6 1.4 2.2.8 4.5 1.3 6.6 2.4l3.2 1.5c1 .6 2 1.2 3 1.8 2.1 1.1 3.8 2.6 5.6 4.1 1.9 1.3 3.2 3.1 4.7 4.6 1.5 1.5 2.7 3.1 3.7 4.7 1 1.6 2.2 2.9 2.8 4.3.7 1.4 1.3 2.6 1.8 3.5 1 2 1.6 3.1 1.6 3.1S335.4 352.5 334.7 350.4z"></path><path fill="#324A5E" d="M287.2 314c0 13.3-14 29.7-31.2 29.7-17.2 0-31.2-16.4-31.2-29.7 0-13.3 14-18.5 31.2-18.5C273.2 295.5 287.2 300.7 287.2 314zM280.3 367.2c-1.6 6.3-11.8 11.2-24.2 11.2-6.2 0-12-1.2-16.2-3.3-4.3-2-7.3-4.8-8.1-7.9 14.5-.1 21.3-5.4 24.2-9.2h.1C259 361.8 265.8 367.1 280.3 367.2z"></path><path fill="#2B3B4E" d="M231.4 325.7c.4.8 1 1.5 1.8 1.9.9.5 1.8.7 2.8.9 2.8.5 5.8.7 8.6 0s5.4-2.6 6.6-5.2c.4-.8.6-1.7.8-2.5.5-2.5.3-5.2-1-7.4-1.3-2.1-4.1-3.5-6.5-2.7-2.5.8-3.9 3.7-3.6 6.3.2 1.8 1 3.6.5 5.3-.5 1.9-2.3 3.1-4.2 3.5-1.9.4-3.8 0-5.7-.3M279.6 325.7c-.4.8-1 1.5-1.8 1.9-.9.5-1.8.7-2.8.9-2.8.5-5.8.7-8.6 0-2.8-.8-5.4-2.6-6.6-5.2-.4-.8-.6-1.7-.8-2.5-.5-2.5-.3-5.2 1-7.4 1.3-2.1 4.1-3.5 6.5-2.7 2.5.8 3.9 3.7 3.6 6.3-.2 1.8-1 3.6-.5 5.3.5 1.9 2.3 3.1 4.2 3.5 1.9.4 3.8 0 5.7-.3"></path><path fill="#FFF" d="M363.8,310.5c-22.2-45.6-60.6-49.2-60.6-49.2c36.3-5.4,65.5,34.2,65.5,34.2c-33.8-58.6-93-47.4-108.1-43.4    l0.1-1.7l-4.6,2.4l-4.6-2.4l0.1,1.7c-15.1-4-74.3-15.2-108.1,43.4c0,0,29.1-39.6,65.5-34.2c0,0-38.4,3.6-60.6,49.2    c0,0,27.1-38.9,56.9-36.7c0,0-50.4,15.2-52,63.4c0,0,13.5-52.5,69.3-58.5c0,0-34.7,6.5-51.4,43.3c0,0,36.3-39,66.6-37.4    c0,0-39,10.2-53.1,35.2c0,0,30.9-34.5,60.2-23l11.3-1.1l11.3,1.1c29.3-11.5,60.2,23,60.2,23c-14.1-24.9-53.1-35.2-53.1-35.2    c30.3-1.6,66.6,37.4,66.6,37.4c-16.8-36.8-51.4-43.3-51.4-43.3c55.8,6,69.3,58.5,69.3,58.5c-1.6-48.2-52-63.4-52-63.4    C336.7,271.6,363.8,310.5,363.8,310.5z"></path><g><path fill="#FFF" d="M287.8 175.7c1.7-8.6 7.3-16.3 15-20.5 7.7-4.2 17.2-4.7 25.3-1.5 4.9 2 9.5 5.6 11.2 10.6-3.4-4.5-9.3-6.1-14.7-7.4-4.1-1-8.4-2-12.6-1.5-4.2.5-8.5 3-9.9 7 9-3.9 20.6 0 25.5 8.5-1.7.3-3.3-.9-4.8-1.8-10.6-6.8-26-4.7-34.4 4.7M338.5 174.9c8.1-8.7 21.9-11.2 32.9-6.5 10.9 4.7 18.5 16 19.4 27.9-4.3-11.2-14.4-20-26-22.7 10.3 4.7 17.7 14.6 21.4 25.4 3.7 10.8 4.2 22.3 3.9 33.7.7-10-2.4-20-7.3-28.8-4.8-8.8-11.4-16.5-18.1-24 5.1 6.9 10.5 14.8 9.2 23.3-3.4-7.3-6.9-14.7-12.4-20.5-5.6-5.8-13.6-9.8-21.5-8.4"></path><g><path fill="#FFF" d="M224.2 175.7c-1.7-8.6-7.3-16.3-15-20.5-7.7-4.2-17.2-4.7-25.3-1.5-4.9 2-9.5 5.6-11.2 10.6 3.4-4.5 9.3-6.1 14.7-7.4 4.1-1 8.4-2 12.6-1.5 4.2.5 8.5 3 9.9 7-9-3.9-20.6 0-25.5 8.5 1.7.3 3.3-.9 4.8-1.8 10.6-6.8 26-4.7 34.4 4.7M173.5 174.9c-8.1-8.7-21.9-11.2-32.9-6.5-10.9 4.7-18.5 16-19.4 27.9 4.3-11.2 14.4-20 26-22.7-10.3 4.7-17.7 14.6-21.4 25.4-3.7 10.8-4.2 22.3-3.9 33.7-.7-10 2.4-20 7.3-28.8 4.8-8.8 11.4-16.5 18.1-24-5.1 6.9-10.5 14.8-9.2 23.3 3.4-7.3 6.9-14.7 12.4-20.5 5.6-5.8 13.6-9.8 21.5-8.4"></path></g></g></svg>