<svg xmlns="http://www.w3.org/2000/svg" viewBox="0 0 256 256" id="avatar"><circle cx="128" cy="128" r="127" fill="#F3756F"></circle><path fill="#AEB8D1" d="M148.3 241.1c-2 4.1-4.3 8.4-8.4 10.4-3 1.5-6.5 1.4-9.9 1.4l-13.4-.3c-.8 0-1.6 0-2.3-.4-.9-.5-1.5-1.4-2.1-2.4-3.6-6.2-7.2-12.5-9-19.5-1-3.8-1.4-7.7-1.7-11.6-1.2-12.1-2.4-24.1-3.6-36.2 4-.5 8-1.1 12-1.6 2.7-.4 5.4-.7 8.1-.8 2.8-.1 5.6 0 8.4.1 1.1 0 2.3.1 3.4.1 5.1.2 10.2.4 15.3.7 4 .2 8.5.6 11.1 3.6 2.1 2.5 2.4 6.1 2.5 9.3.2 5.7.4 11.6-1.5 17-1.1 3.1-2.8 5.9-3.4 9.1-.3 1.9-.2 3.9-.3 5.9-.3 5.3-2.8 10.3-5.2 15.2z"></path><path fill="#A5B0C7" d="M94.4 205v.1l.1-.1z"></path><path fill="#D3AA6F" d="M99.7 128.9h56.7v54.3H99.7z"></path><path fill="#312C29" d="M90.1 120c2.5 7.6 10 13.2 18 13.5.6-.5.2-1.4-.2-2-6.9-10.3-14.5-20.3-19.2-31.7.6 6.7-.7 13.7 1.4 20.2zm83.3-1.9c-1 5.1-3.7 9.8-7.7 13.2-.7.6-1.4 1.1-2.3 1.3-1.4.3-2.9-.4-4-1.3-2.2-1.8-3.6-4.5-4.3-7.3-.7-2.8-.8-5.7-1-8.6-.1-1.8-.1-3.6-.2-5.5-.1-1.6-.1-3.3.6-4.7 1.2-2.4 4-3.4 6.6-4.2 1.6-.5 3.3-.9 5-1.1 1.4-.1 2.9.1 3.9 1 1.4 1.3 1.3 3.5 1.2 5.4-.1 2.6-.1 5.2.2 7.8.1.8.2 1.7.9 2.1.3.2.8.3 1 .6.2.5.2.9.1 1.3z"></path><ellipse cx="166.2" cy="97.5" fill="#D3AA6F" rx="7.5" ry="16" transform="rotate(10.327 166.124 97.488)"></ellipse><ellipse cx="93" cy="97.5" fill="#D3AA6F" rx="7.5" ry="16" transform="rotate(-4.997 92.95 97.482)"></ellipse><ellipse cx="128" cy="97.9" fill="#EEC98F" rx="35.9" ry="57.3"></ellipse><path fill="#EEC98F" d="M96.3 44.6c4-1.5 8.8.2 11.6 3.4 2.9 3.2 4.2 7.5 4.6 11.8.4 4.3 0 8.6 0 12.9 0 2.1.1 4.2-.3 6.3-.7 4-3 7.5-5.3 10.8-1.5 2.3-3.2 4.7-5.7 5.9-3.9 1.9-9.1.1-11.5-3.6-2.1-3.3-2.4-7.4-2.5-11.3-.3-7.9-.5-15.8 1-23.6 1.1-5.1 3.2-10.8 8.1-12.6z"></path><path fill="#312C29" d="M99.8 35.3c-.4.7-.7 1.4-1.4 1.7-.5.2-1.1.2-1.7.2-2.5.1-4.8 1.7-6.4 3.7-3.4 4.1-4.8 9.5-5.8 14.7-1.5 7.5-2.5 15-2.1 22.6.4 7.6 2.3 15.2 6.3 21.6 2.7.6 3.9 3.9 4.8 3.9.7-2.1 0-11.9-.8-18.2-.2-1.4-.4-2.9.1-4.2.7-2.2 3.1-3.7 3.6-6 .3-1.5-.3-3-.3-4.5-.1-2.7 1.5-5.3 1.5-8.1.1-3-1.6-6.4.4-8.6 1.5 5.5 3.7 11.4 8.6 14.4 2.9 1.8 6.5 2.3 9.9 2.5 7.8.4 15.9-.5 23.2 2.1-1.6-3.5-5.9-4.6-9.7-5.3 2.6.8 5.2 1.7 7.9 2.2 3.7.7 7.6.7 11.3 1.5 3.7.7 7.5 2.2 9.9 5.2-1.4-3-4-5.4-7.1-6.4 3.3-.2 6.4 2.2 7.8 5.2 1.4 3 1.4 6.5.7 9.7-.5 2.4-1.2 4.9-.6 7.3.7 2.6 3 4.8 2.6 7.5 1.6.1 3-1.1 3.7-2.5.8-1.4 1-3 1.5-4.5.7-2.2 1.7-4.2 2.6-6.3 3.1-8.2 2-17.3.9-26-.9-6.8-1.9-14-6.2-19.3-1.1-1.4-2.5-2.6-3.8-3.9-5-4.5-10.1-8.9-16-12.1-5.9-3.1-12.7-5-19.4-4.1-2.6.4-5.2 1.1-7.7 2-7.2 2.4-14.8 5.5-18.3 12z"></path><path fill="#1F1E24" d="m115.2 189.7 8.3 9.3h8.6l7.5-9.3-5.6-8.9h-10.9z"></path><path fill="#CBD1E4" d="M100 151.2s-4.9 8.5 28 29.8c0 0-13.8 12.2-18 21.8-4.2 9.7-3.5 7.3-3.5 7.3l-12.2-39.9c.1 0-.5-17.5 5.7-19zm56 0s4.9 8.5-28 29.8c0 0 13.8 12.2 18 21.8 4.2 9.7 3.5 7.3 3.5 7.3l12.2-39.9c-.1 0 .5-17.5-5.7-19z"></path><path fill="#736868" d="M98 251.4C89.9 234.6 84.1 221 84.1 221l10.3-15.8.1-.2h-.1l-12.5 1.5s-3-4.8-3-20.5c0-7.4 4.2-15.3 8.6-21.5-12.7 4.2-54.8 18.7-59.2 25.9-1 1.6-2.4 5.4-4.2 10.7 17.5 24.8 43.6 43 73.9 50.3zm76.1-45-12.6-1.5 10.4 16s-5.7 13.7-13.9 30.5c30.3-7.3 56.4-25.6 73.8-50.3-1.7-5.3-3.2-9.1-4.2-10.7-4.4-7.2-46.5-21.7-59.2-25.9 4.4 6.2 8.6 14 8.6 21.5.1 15.6-2.9 20.4-2.9 20.4z"></path><path fill="#1F1E24" d="M128 255c2.4 0 4.8-.1 7.2-.2 1.7-5.4 3.2-10.6 4.7-15.5l-7.7-40.3h-8.6l-6.8 42.2c1.3 4.3 2.7 8.8 4.1 13.6 2.3.1 4.7.2 7.1.2z"></path><path fill="#5C4E4E" d="m81.9 206.4 12.5-1.5h.1l-.1.2L84.1 221s5.7 13.7 13.9 30.5c7.4 1.8 15 2.9 22.8 3.4-1.5-4.7-2.8-9.3-4.1-13.6-7.6-25.3-12.2-43.5-15.1-56.5-6.1-27.7-4.1-31.8-4.1-31.8s-5.1 4.8-10 11.6c-4.4 6.2-8.6 14-8.6 21.5 0 15.5 3 20.3 3 20.3zm76.1 45c8.1-16.8 13.9-30.5 13.9-30.5l-10.4-16 12.6 1.5s3-4.8 3-20.5c0-7.4-4.2-15.3-8.6-21.5-4.9-6.8-10-11.6-10-11.6s1.9 3.8-3.3 28.4c-2.7 12.8-7.4 31.4-15.3 58-1.4 4.9-3 10-4.7 15.5 7.8-.3 15.4-1.5 22.8-3.3z"></path></svg>